<svg xmlns="http://www.w3.org/2000/svg" version="1.1" xmlns:xlink="http://www.w3.org/1999/xlink" xmlns:svgjs="http://svgjs.com/svgjs" width="1440" height="900" preserveAspectRatio="none" viewBox="0 0 1440 900"><g clip-path="url(&quot;#SvgjsClipPath1087&quot;)" fill="none"><rect width="1440" height="900" x="0" y="0" fill="rgba(85, 66, 61, 1)"></rect><circle r="150" cx="122.2" cy="56.86" stroke="#e68a6e" stroke-opacity="1" stroke-width="2"></circle><circle r="150" cx="531.44" cy="638.75" stroke="#e68a6e" stroke-opacity="1" stroke-width="2"></circle><circle r="145.66" cx="208.57" cy="832.6" stroke="#e68a6e" stroke-opacity="1" stroke-width="2"></circle><circle r="151.915" cx="232.11" cy="405.7" stroke="#e68a6e" stroke-opacity="1" stroke-width="2"></circle><circle r="219.115" cx="1235.14" cy="806.59" stroke="#e68a6e" stroke-opacity="1" stroke-width="2"></circle><circle r="136.565" cx="869.29" cy="273.19" stroke="#e68a6e" stroke-opacity="1" stroke-width="2"></circle><circle r="85.64" cx="935.29" cy="132.46" stroke="#e68a6e" stroke-opacity="1" stroke-width="2"></circle><circle r="277.665" cx="306.45" cy="633.6" stroke="#e68a6e" stroke-opacity="1" stroke-width="2"></circle><circle r="197.005" cx="1279.66" cy="442.35" stroke="#e68a6e" stroke-opacity="1" stroke-width="2"></circle><circle r="233.225" cx="808.68" cy="338.82" stroke="#e68a6e" stroke-opacity="1" stroke-width="2"></circle><circle r="291.765" cx="194.75" cy="836.57" stroke="#e68a6e" stroke-opacity="1" stroke-width="2"></circle><circle r="154.35" cx="583.46" cy="804.78" stroke="#e68a6e" stroke-opacity="1" stroke-width="2"></circle><circle r="161.32" cx="420.02" cy="205.43" stroke="#e68a6e" stroke-opacity="1" stroke-width="2"></circle><circle r="165.445" cx="87.55" cy="335.11" stroke="#e68a6e" stroke-opacity="1" stroke-width="2"></circle><circle r="86.295" cx="1439.01" cy="358.73" stroke="#e68a6e" stroke-opacity="1" stroke-width="2"></circle><circle r="196.675" cx="1285.6" cy="159.48" stroke="#e68a6e" stroke-opacity="1" stroke-width="2"></circle><circle r="285.515" cx="1132.66" cy="264.58" stroke="#e68a6e" stroke-opacity="1" stroke-width="2"></circle><circle r="239.865" cx="206.45" cy="874.03" stroke="#e68a6e" stroke-opacity="1" stroke-width="2"></circle><circle r="148.895" cx="1145.23" cy="522.33" stroke="#e68a6e" stroke-opacity="1" stroke-width="2"></circle></g><defs><clipPath id="SvgjsClipPath1087"><rect width="1440" height="900" x="0" y="0"></rect></clipPath></defs></svg>