<?xml version="1.0" encoding="UTF-8" standalone="no"?><!-- Generator: Gravit.io --><svg xmlns="http://www.w3.org/2000/svg" xmlns:xlink="http://www.w3.org/1999/xlink" style="isolation:isolate" viewBox="0 0 300 300" width="300pt" height="300pt"><defs><clipPath id="_clipPath_6TyEt7fmlepSXyVuEcOGQ0ncGpRZvz2W"><rect width="300" height="300"/></clipPath></defs><g clip-path="url(#_clipPath_6TyEt7fmlepSXyVuEcOGQ0ncGpRZvz2W)"><path d=" M 120 98 L 128 106 L 131 98 L 120 98 Z " fill="rgb(197,129,84)"/><path d=" M 85 111 L 91 119 L 91 120 L 85 111 Z " fill="rgb(75,94,102)"/><path d=" M 69 76 L 71 83 L 74 84 L 69 76 Z " fill="rgb(214,129,104)"/><path d=" M 49 241 L 68 233 L 69 264 L 49 241 Z " fill="rgb(126,155,167)"/><path d=" M 189 259 L 192 273 L 194 276 L 189 259 Z " fill="rgb(79,114,125)"/><path d=" M 131 88 L 133 72 L 141 77 L 131 88 Z " fill="rgb(215,157,128)"/><path d=" M 16 196 L 20 188 L 26 191 L 16 196 Z " fill="rgb(140,167,179)"/><path d=" M 222 270 L 245 300 L 257 258 L 222 270 Z " fill="rgb(229,138,110)"/><path d=" M 140 58 L 147 49 L 152 64 L 140 58 Z " fill="rgb(219,148,110)"/><path d=" M 14 300 L 33 274 L 35 300 L 14 300 Z " fill="rgb(104,131,143)"/><path d=" M 111 14 L 120 15 L 127 13 L 111 14 Z " fill="rgb(229,137,109)"/><path d=" M 141 102 L 155 92 L 160 102 L 141 102 Z " fill="rgb(187,132,104)"/><path d=" M 159 63 L 167 78 L 170 56 L 159 63 Z " fill="rgb(229,141,112)"/><path d=" M 64 65 L 69 57 L 69 76 L 64 65 Z " fill="rgb(6,15,22)"/><path d=" M 85 251 L 91 245 L 91 259 L 85 251 Z " fill="rgb(98,130,142)"/><path d=" M 144 120 L 153 118 L 154 114 L 144 120 Z " fill="rgb(115,70,51)"/><path d=" M 112 77 L 113 70 L 120 74 L 112 77 Z " fill="rgb(229,141,101)"/><path d=" M 48 256 L 49 241 L 69 264 L 48 256 Z " fill="rgb(123,152,164)"/><path d=" M 135 127 L 135 144 L 141 119 L 135 127 Z " fill="rgb(6,15,20)"/><path d=" M 160 102 L 168 84 L 182 82 L 160 102 Z " fill="rgb(229,137,109)"/><path d=" M 77 276 L 81 268 L 86 279 L 77 276 Z " fill="rgb(45,90,104)"/><path d=" M 14 243 L 15 239 L 16 227 L 14 243 Z " fill="rgb(209,143,124)"/><path d=" M 176 274 L 192 273 L 192 278 L 176 274 Z " fill="rgb(1,11,18)"/><path d=" M 97 56 L 98 35 L 110 46 L 97 56 Z " fill="rgb(4,21,26)"/><path d=" M 0 230 L 0 261 L 14 243 L 0 230 Z " fill="rgb(229,138,110)"/><path d=" M 137 180 L 137 188 L 144 182 L 137 180 Z " fill="rgb(16,48,63)"/><path d=" M 104 139 L 112 156 L 120 153 L 104 139 Z " fill="rgb(122,146,157)"/><path d=" M 0 178 L 16 196 L 20 188 L 0 178 Z " fill="rgb(228,138,111)"/><path d=" M 154 170 L 159 177 L 166 169 L 154 170 Z " fill="rgb(115,139,150)"/><path d=" M 153 118 L 154 114 L 161 113 L 153 118 Z " fill="rgb(113,69,51)"/><path d=" M 127 13 L 140 0 L 142 17 L 127 13 Z " fill="rgb(229,137,109)"/><path d=" M 131 88 L 141 102 L 155 92 L 131 88 Z " fill="rgb(202,147,117)"/><path d=" M 94 106 L 96 93 L 104 101 L 94 106 Z " fill="rgb(173,124,95)"/><path d=" M 121 84 L 126 84 L 131 88 L 121 84 Z " fill="rgb(186,82,33)"/><path d=" M 118 71 L 120 65 L 124 70 L 118 71 Z " fill="rgb(235,149,103)"/><path d=" M 50 196 L 68 190 L 69 211 L 50 196 Z " fill="rgb(134,160,171)"/><path d=" M 146 150 L 151 161 L 152 155 L 146 150 Z " fill="rgb(89,124,136)"/><path d=" M 79 257 L 85 251 L 92 271 L 79 257 Z " fill="rgb(94,128,140)"/><path d=" M 56 140 L 64 133 L 65 146 L 56 140 Z " fill="rgb(147,182,199)"/><path d=" M 63 51 L 64 49 L 64 56 L 63 51 Z " fill="rgb(225,136,109)"/><path d=" M 111 120 L 128 106 L 128 125 L 111 120 Z " fill="rgb(208,150,112)"/><path d=" M 99 70 L 103 71 L 110 63 L 99 70 Z " fill="rgb(160,129,119)"/><path d=" M 50 196 L 57 218 L 69 211 L 50 196 Z " fill="rgb(108,136,147)"/><path d=" M 182 220 L 185 212 L 194 239 L 182 220 Z " fill="rgb(158,183,194)"/><path d=" M 104 139 L 120 153 L 124 146 L 104 139 Z " fill="rgb(98,125,136)"/><path d=" M 0 230 L 14 243 L 16 227 L 0 230 Z " fill="rgb(229,138,110)"/><path d=" M 76 246 L 85 251 L 91 245 L 76 246 Z " fill="rgb(103,130,141)"/><path d=" M 141 77 L 154 69 L 155 92 L 141 77 Z " fill="rgb(223,149,105)"/><path d=" M 34 0 L 60 26 L 73 0 L 34 0 Z " fill="rgb(229,138,110)"/><path d=" M 176 274 L 177 283 L 178 286 L 176 274 Z " fill="rgb(60,75,84)"/><path d=" M 133 28 L 135 24 L 137 28 L 133 28 Z " fill="rgb(118,86,78)"/><path d=" M 0 300 L 14 293 L 17 278 L 0 300 Z " fill="rgb(229,138,110)"/><path d=" M 147 21 L 153 28 L 153 34 L 147 21 Z " fill="rgb(36,34,32)"/><path d=" M 159 177 L 168 187 L 168 192 L 159 177 Z " fill="rgb(96,130,143)"/><path d=" M 29 151 L 38 159 L 43 153 L 29 151 Z " fill="rgb(229,138,111)"/><path d=" M 97 272 L 98 265 L 104 281 L 97 272 Z " fill="rgb(84,117,129)"/><path d=" M 71 83 L 77 88 L 82 100 L 71 83 Z " fill="rgb(229,137,109)"/><path d=" M 35 300 L 50 289 L 56 300 L 35 300 Z " fill="rgb(113,143,155)"/><path d=" M 133 41 L 134 36 L 137 34 L 133 41 Z " fill="rgb(92,69,67)"/><path d=" M 20 188 L 28 176 L 29 182 L 20 188 Z " fill="rgb(153,178,190)"/><path d=" M 81 94 L 82 100 L 86 89 L 81 94 Z " fill="rgb(111,85,77)"/><path d=" M 111 14 L 112 20 L 120 15 L 111 14 Z " fill="rgb(2,23,37)"/><path d=" M 166 33 L 170 56 L 199 46 L 166 33 Z " fill="rgb(229,138,110)"/><path d=" M 162 145 L 167 147 L 169 140 L 162 145 Z " fill="rgb(154,176,186)"/><path d=" M 143 190 L 144 182 L 148 182 L 143 190 Z " fill="rgb(128,154,165)"/><path d=" M 137 28 L 147 34 L 149 30 L 137 28 Z " fill="rgb(38,30,29)"/><path d=" M 110 63 L 112 55 L 120 49 L 110 63 Z " fill="rgb(123,99,94)"/><path d=" M 110 63 L 113 70 L 120 65 L 110 63 Z " fill="rgb(184,141,120)"/><path d=" M 182 220 L 182 226 L 186 238 L 182 220 Z " fill="rgb(121,151,162)"/><path d=" M 105 132 L 111 120 L 118 123 L 105 132 Z " fill="rgb(2,1,1)"/><path d=" M 175 208 L 176 215 L 182 226 L 175 208 Z " fill="rgb(41,78,89)"/><path d=" M 0 134 L 0 178 L 29 151 L 0 134 Z " fill="rgb(229,138,110)"/><path d=" M 140 133 L 140 140 L 147 125 L 140 133 Z " fill="rgb(54,95,108)"/><path d=" M 162 215 L 162 217 L 166 231 L 162 215 Z " fill="rgb(60,81,92)"/><path d=" M 85 251 L 91 259 L 92 271 L 85 251 Z " fill="rgb(66,104,118)"/><path d=" M 127 281 L 131 270 L 135 287 L 127 281 Z " fill="rgb(106,140,153)"/><path d=" M 0 31 L 34 0 L 39 50 L 0 31 Z " fill="rgb(229,138,110)"/><path d=" M 154 69 L 159 63 L 161 80 L 154 69 Z " fill="rgb(206,138,107)"/><path d=" M 252 55 L 259 111 L 300 77 L 252 55 Z " fill="rgb(229,137,110)"/><path d=" M 137 28 L 138 18 L 147 21 L 137 28 Z " fill="rgb(5,24,32)"/><path d=" M 168 187 L 168 192 L 177 203 L 168 187 Z " fill="rgb(115,146,158)"/><path d=" M 146 150 L 152 141 L 152 155 L 146 150 Z " fill="rgb(126,152,162)"/><path d=" M 256 210 L 257 162 L 300 187 L 256 210 Z " fill="rgb(229,138,110)"/><path d=" M 27 237 L 48 256 L 49 241 L 27 237 Z " fill="rgb(114,143,155)"/><path d=" M 152 64 L 154 64 L 154 69 L 152 64 Z " fill="rgb(197,136,100)"/><path d=" M 84 288 L 86 279 L 92 287 L 84 288 Z " fill="rgb(17,65,79)"/><path d=" M 78 21 L 86 16 L 92 15 L 78 21 Z " fill="rgb(17,23,27)"/><path d=" M 120 153 L 124 146 L 126 152 L 120 153 Z " fill="rgb(87,116,127)"/><path d=" M 199 46 L 217 92 L 252 55 L 199 46 Z " fill="rgb(229,137,110)"/><path d=" M 140 275 L 157 247 L 160 269 L 140 275 Z " fill="rgb(140,168,180)"/><path d=" M 166 33 L 174 0 L 199 46 L 166 33 Z " fill="rgb(229,138,110)"/><path d=" M 147 49 L 152 64 L 159 53 L 147 49 Z " fill="rgb(216,147,113)"/><path d=" M 180 300 L 195 300 L 196 289 L 180 300 Z " fill="rgb(3,17,24)"/><path d=" M 144 120 L 147 125 L 152 126 L 144 120 Z " fill="rgb(89,123,133)"/><path d=" M 142 192 L 148 182 L 151 189 L 142 192 Z " fill="rgb(146,172,182)"/><path d=" M 0 86 L 33 119 L 51 89 L 0 86 Z " fill="rgb(229,137,110)"/><path d=" M 104 139 L 122 141 L 124 146 L 104 139 Z " fill="rgb(123,146,156)"/><path d=" M 97 76 L 97 82 L 107 76 L 97 76 Z " fill="rgb(161,119,104)"/><path d=" M 121 161 L 130 173 L 135 167 L 121 161 Z " fill="rgb(124,153,164)"/><path d=" M 15 239 L 18 252 L 27 237 L 15 239 Z " fill="rgb(122,145,156)"/><path d=" M 91 70 L 93 65 L 99 70 L 91 70 Z " fill="rgb(98,73,69)"/><path d=" M 137 188 L 143 190 L 144 182 L 137 188 Z " fill="rgb(16,55,71)"/><path d=" M 0 261 L 17 261 L 17 278 L 0 261 Z " fill="rgb(230,137,110)"/><path d=" M 127 23 L 131 28 L 135 24 L 127 23 Z " fill="rgb(15,33,41)"/><path d=" M 38 159 L 43 153 L 56 140 L 38 159 Z " fill="rgb(195,169,164)"/><path d=" M 37 183 L 56 171 L 68 190 L 37 183 Z " fill="rgb(142,171,183)"/><path d=" M 48 256 L 50 289 L 66 277 L 48 256 Z " fill="rgb(106,138,150)"/><path d=" M 152 126 L 169 134 L 169 140 L 152 126 Z " fill="rgb(153,177,187)"/><path d=" M 77 20 L 78 21 L 86 16 L 77 20 Z " fill="rgb(103,73,64)"/><path d=" M 77 88 L 81 94 L 84 84 L 77 88 Z " fill="rgb(51,44,43)"/><path d=" M 204 281 L 210 300 L 222 270 L 204 281 Z " fill="rgb(229,138,110)"/><path d=" M 141 145 L 147 139 L 152 141 L 141 145 Z " fill="rgb(106,133,143)"/><path d=" M 112 20 L 120 15 L 127 23 L 112 20 Z " fill="rgb(2,23,37)"/><path d=" M 218 137 L 257 162 L 259 111 L 218 137 Z " fill="rgb(229,138,110)"/><path d=" M 152 141 L 154 146 L 162 145 L 152 141 Z " fill="rgb(121,151,163)"/><path d=" M 141 145 L 146 150 L 152 141 L 141 145 Z " fill="rgb(120,148,158)"/><path d=" M 86 89 L 86 106 L 96 93 L 86 89 Z " fill="rgb(154,111,90)"/><path d=" M 28 176 L 29 182 L 37 183 L 28 176 Z " fill="rgb(145,177,192)"/><path d=" M 110 276 L 113 257 L 119 267 L 110 276 Z " fill="rgb(124,151,163)"/><path d=" M 93 65 L 99 70 L 102 61 L 93 65 Z " fill="rgb(78,60,59)"/><path d=" M 113 257 L 119 267 L 131 270 L 113 257 Z " fill="rgb(101,134,147)"/><path d=" M 194 239 L 198 253 L 216 232 L 194 239 Z " fill="rgb(229,139,111)"/><path d=" M 160 269 L 170 300 L 177 283 L 160 269 Z " fill="rgb(143,171,183)"/><path d=" M 153 134 L 163 140 L 169 140 L 153 134 Z " fill="rgb(115,146,157)"/><path d=" M 0 207 L 14 218 L 16 227 L 0 207 Z " fill="rgb(227,138,111)"/><path d=" M 104 139 L 111 136 L 122 141 L 104 139 Z " fill="rgb(136,159,168)"/><path d=" M 81 268 L 91 274 L 92 271 L 81 268 Z " fill="rgb(116,147,160)"/><path d=" M 73 34 L 92 15 L 98 35 L 73 34 Z " fill="rgb(1,10,19)"/><path d=" M 118 93 L 122 91 L 131 98 L 118 93 Z " fill="rgb(160,68,16)"/><path d=" M 153 34 L 159 53 L 166 33 L 153 34 Z " fill="rgb(229,138,110)"/><path d=" M 92 137 L 104 139 L 112 156 L 92 137 Z " fill="rgb(109,138,150)"/><path d=" M 91 274 L 92 271 L 97 272 L 91 274 Z " fill="rgb(38,75,88)"/><path d=" M 105 164 L 108 157 L 121 161 L 105 164 Z " fill="rgb(138,164,175)"/><path d=" M 68 233 L 76 246 L 82 232 L 68 233 Z " fill="rgb(118,142,152)"/><path d=" M 139 43 L 140 58 L 147 49 L 139 43 Z " fill="rgb(193,144,123)"/><path d=" M 160 102 L 182 82 L 184 116 L 160 102 Z " fill="rgb(229,137,109)"/><path d=" M 158 162 L 161 156 L 166 169 L 158 162 Z " fill="rgb(137,163,172)"/><path d=" M 112 49 L 112 55 L 126 41 L 112 49 Z " fill="rgb(83,73,75)"/><path d=" M 160 269 L 162 250 L 173 262 L 160 269 Z " fill="rgb(150,178,190)"/><path d=" M 161 156 L 162 145 L 167 147 L 161 156 Z " fill="rgb(139,167,178)"/><path d=" M 68 233 L 69 211 L 82 232 L 68 233 Z " fill="rgb(109,137,147)"/><path d=" M 119 42 L 122 34 L 134 36 L 119 42 Z " fill="rgb(25,45,53)"/><path d=" M 166 169 L 171 163 L 173 173 L 166 169 Z " fill="rgb(164,182,190)"/><path d=" M 123 231 L 128 208 L 147 229 L 123 231 Z " fill="rgb(142,170,182)"/><path d=" M 141 119 L 144 120 L 154 114 L 141 119 Z " fill="rgb(107,65,46)"/><path d=" M 128 208 L 142 192 L 157 202 L 128 208 Z " fill="rgb(150,178,190)"/><path d=" M 162 250 L 164 237 L 169 245 L 162 250 Z " fill="rgb(121,149,158)"/><path d=" M 154 69 L 155 92 L 161 80 L 154 69 Z " fill="rgb(214,149,116)"/><path d=" M 98 35 L 112 20 L 122 34 L 98 35 Z " fill="rgb(2,23,33)"/><path d=" M 173 173 L 173 182 L 205 182 L 173 173 Z " fill="rgb(229,138,110)"/><path d=" M 178 286 L 180 300 L 196 289 L 178 286 Z " fill="rgb(1,10,19)"/><path d=" M 134 148 L 139 154 L 146 150 L 134 148 Z " fill="rgb(89,119,130)"/><path d=" M 127 158 L 134 148 L 139 154 L 127 158 Z " fill="rgb(9,20,27)"/><path d=" M 64 133 L 77 118 L 84 140 L 64 133 Z " fill="rgb(144,173,186)"/><path d=" M 174 263 L 176 274 L 192 273 L 174 263 Z " fill="rgb(2,11,21)"/><path d=" M 56 171 L 68 190 L 81 176 L 56 171 Z " fill="rgb(143,169,181)"/><path d=" M 154 194 L 161 183 L 168 197 L 154 194 Z " fill="rgb(1,11,19)"/><path d=" M 16 227 L 22 216 L 27 237 L 16 227 Z " fill="rgb(127,153,164)"/><path d=" M 110 46 L 119 42 L 122 34 L 110 46 Z " fill="rgb(10,34,41)"/><path d=" M 131 28 L 133 28 L 135 24 L 131 28 Z " fill="rgb(57,53,55)"/><path d=" M 104 101 L 114 93 L 120 98 L 104 101 Z " fill="rgb(200,139,96)"/><path d=" M 159 232 L 162 217 L 166 231 L 159 232 Z " fill="rgb(143,171,183)"/><path d=" M 130 173 L 133 192 L 137 180 L 130 173 Z " fill="rgb(148,175,187)"/><path d=" M 135 300 L 140 275 L 170 300 L 135 300 Z " fill="rgb(138,166,179)"/><path d=" M 147 34 L 148 38 L 149 30 L 147 34 Z " fill="rgb(122,77,60)"/><path d=" M 259 111 L 300 77 L 300 138 L 259 111 Z " fill="rgb(229,137,110)"/><path d=" M 82 232 L 91 245 L 104 230 L 82 232 Z " fill="rgb(127,155,166)"/><path d=" M 0 86 L 39 50 L 51 89 L 0 86 Z " fill="rgb(229,137,110)"/><path d=" M 152 15 L 166 33 L 174 0 L 152 15 Z " fill="rgb(229,137,110)"/><path d=" M 104 101 L 111 120 L 128 106 L 104 101 Z " fill="rgb(219,151,105)"/><path d=" M 194 276 L 202 276 L 204 281 L 194 276 Z " fill="rgb(154,185,198)"/><path d=" M 33 274 L 48 256 L 50 289 L 33 274 Z " fill="rgb(103,135,147)"/><path d=" M 120 49 L 126 41 L 133 41 L 120 49 Z " fill="rgb(122,104,104)"/><path d=" M 110 46 L 112 49 L 119 42 L 110 46 Z " fill="rgb(35,43,46)"/><path d=" M 14 293 L 14 300 L 17 278 L 14 293 Z " fill="rgb(160,144,141)"/><path d=" M 86 89 L 96 93 L 97 82 L 86 89 Z " fill="rgb(166,130,116)"/><path d=" M 140 140 L 147 139 L 152 126 L 140 140 Z " fill="rgb(111,137,147)"/><path d=" M 133 72 L 140 58 L 141 77 L 133 72 Z " fill="rgb(209,156,131)"/><path d=" M 82 105 L 86 106 L 98 113 L 82 105 Z " fill="rgb(62,43,36)"/><path d=" M 120 279 L 123 292 L 127 281 L 120 279 Z " fill="rgb(98,132,145)"/><path d=" M 137 28 L 137 34 L 147 34 L 137 28 Z " fill="rgb(101,64,51)"/><path d=" M 205 182 L 256 210 L 257 162 L 205 182 Z " fill="rgb(229,138,110)"/><path d=" M 120 49 L 125 53 L 133 41 L 120 49 Z " fill="rgb(147,123,117)"/><path d=" M 84 140 L 90 147 L 99 152 L 84 140 Z " fill="rgb(122,151,163)"/><path d=" M 145 17 L 149 20 L 152 15 L 145 17 Z " fill="rgb(230,138,110)"/><path d=" M 126 15 L 138 18 L 142 17 L 126 15 Z " fill="rgb(45,49,52)"/><path d=" M 160 238 L 164 237 L 166 231 L 160 238 Z " fill="rgb(131,161,172)"/><path d=" M 194 276 L 200 300 L 206 290 L 194 276 Z " fill="rgb(146,174,186)"/><path d=" M 88 85 L 91 70 L 97 82 L 88 85 Z " fill="rgb(130,90,79)"/><path d=" M 29 151 L 43 153 L 56 140 L 29 151 Z " fill="rgb(229,138,110)"/><path d=" M 50 289 L 56 300 L 70 295 L 50 289 Z " fill="rgb(116,146,158)"/><path d=" M 28 176 L 37 183 L 56 171 L 28 176 Z " fill="rgb(145,176,191)"/><path d=" M 97 82 L 107 76 L 108 85 L 97 82 Z " fill="rgb(179,136,119)"/><path d=" M 130 173 L 137 180 L 146 176 L 130 173 Z " fill="rgb(139,163,172)"/><path d=" M 77 276 L 81 295 L 84 288 L 77 276 Z " fill="rgb(49,95,109)"/><path d=" M 126 41 L 133 41 L 134 36 L 126 41 Z " fill="rgb(79,74,78)"/><path d=" M 82 232 L 97 211 L 104 230 L 82 232 Z " fill="rgb(128,155,166)"/><path d=" M 90 294 L 103 289 L 105 300 L 90 294 Z " fill="rgb(57,96,110)"/><path d=" M 198 253 L 204 281 L 222 270 L 198 253 Z " fill="rgb(229,138,110)"/><path d=" M 63 51 L 64 56 L 64 65 L 63 51 Z " fill="rgb(188,120,99)"/><path d=" M 112 156 L 120 153 L 121 161 L 112 156 Z " fill="rgb(125,153,165)"/><path d=" M 110 276 L 111 292 L 120 279 L 110 276 Z " fill="rgb(123,153,165)"/><path d=" M 170 300 L 176 300 L 179 295 L 170 300 Z " fill="rgb(51,80,93)"/><path d=" M 97 272 L 103 289 L 104 281 L 97 272 Z " fill="rgb(76,112,125)"/><path d=" M 176 274 L 178 286 L 192 278 L 176 274 Z " fill="rgb(1,9,19)"/><path d=" M 69 211 L 82 232 L 97 211 L 69 211 Z " fill="rgb(130,157,168)"/><path d=" M 182 226 L 186 238 L 189 259 L 182 226 Z " fill="rgb(93,126,137)"/><path d=" M 65 146 L 81 176 L 90 156 L 65 146 Z " fill="rgb(137,165,177)"/><path d=" M 173 173 L 180 150 L 205 182 L 173 173 Z " fill="rgb(229,138,110)"/><path d=" M 140 140 L 147 125 L 152 126 L 140 140 Z " fill="rgb(88,122,134)"/><path d=" M 98 35 L 110 46 L 122 34 L 98 35 Z " fill="rgb(6,29,36)"/><path d=" M 97 76 L 99 70 L 103 71 L 97 76 Z " fill="rgb(168,143,133)"/><path d=" M 135 144 L 140 133 L 140 140 L 135 144 Z " fill="rgb(14,43,52)"/><path d=" M 63 116 L 77 118 L 78 112 L 63 116 Z " fill="rgb(229,138,110)"/><path d=" M 70 295 L 75 300 L 81 295 L 70 295 Z " fill="rgb(104,138,151)"/><path d=" M 91 120 L 97 126 L 98 132 L 91 120 Z " fill="rgb(142,165,174)"/><path d=" M 147 229 L 157 247 L 159 232 L 147 229 Z " fill="rgb(145,173,185)"/><path d=" M 104 139 L 105 132 L 111 136 L 104 139 Z " fill="rgb(136,158,167)"/><path d=" M 134 148 L 141 145 L 146 150 L 134 148 Z " fill="rgb(130,156,167)"/><path d=" M 0 261 L 14 243 L 17 261 L 0 261 Z " fill="rgb(230,138,110)"/><path d=" M 91 180 L 105 164 L 105 192 L 91 180 Z " fill="rgb(143,170,182)"/><path d=" M 113 257 L 126 247 L 131 270 L 113 257 Z " fill="rgb(106,138,151)"/><path d=" M 41 212 L 49 241 L 57 218 L 41 212 Z " fill="rgb(130,156,167)"/><path d=" M 159 63 L 161 56 L 170 56 L 159 63 Z " fill="rgb(230,138,110)"/><path d=" M 66 277 L 70 295 L 77 276 L 66 277 Z " fill="rgb(114,146,158)"/><path d=" M 198 253 L 216 232 L 222 270 L 198 253 Z " fill="rgb(229,138,109)"/><path d=" M 73 34 L 78 21 L 92 15 L 73 34 Z " fill="rgb(1,16,26)"/><path d=" M 14 218 L 16 227 L 22 216 L 14 218 Z " fill="rgb(109,135,146)"/><path d=" M 64 56 L 64 65 L 69 57 L 64 56 Z " fill="rgb(1,24,34)"/><path d=" M 154 64 L 154 69 L 159 63 L 154 64 Z " fill="rgb(147,91,64)"/><path d=" M 63 51 L 64 49 L 67 36 L 63 51 Z " fill="rgb(171,112,94)"/><path d=" M 128 208 L 133 192 L 142 192 L 128 208 Z " fill="rgb(151,179,191)"/><path d=" M 111 292 L 120 300 L 123 292 L 111 292 Z " fill="rgb(118,149,161)"/><path d=" M 73 34 L 97 56 L 98 35 L 73 34 Z " fill="rgb(1,16,22)"/><path d=" M 34 0 L 39 50 L 60 26 L 34 0 Z " fill="rgb(229,138,110)"/><path d=" M 0 31 L 0 86 L 39 50 L 0 31 Z " fill="rgb(229,138,110)"/><path d=" M 152 141 L 153 134 L 163 140 L 152 141 Z " fill="rgb(149,175,186)"/><path d=" M 118 123 L 128 125 L 135 127 L 118 123 Z " fill="rgb(80,64,58)"/><path d=" M 168 192 L 175 208 L 177 203 L 168 192 Z " fill="rgb(90,126,138)"/><path d=" M 133 41 L 137 34 L 139 43 L 133 41 Z " fill="rgb(125,94,89)"/><path d=" M 124 146 L 135 144 L 141 145 L 124 146 Z " fill="rgb(154,179,189)"/><path d=" M 81 94 L 86 89 L 88 85 L 81 94 Z " fill="rgb(135,103,92)"/><path d=" M 245 300 L 257 258 L 300 300 L 245 300 Z " fill="rgb(229,137,109)"/><path d=" M 120 153 L 126 152 L 127 158 L 120 153 Z " fill="rgb(110,137,148)"/><path d=" M 199 46 L 230 0 L 252 55 L 199 46 Z " fill="rgb(229,137,110)"/><path d=" M 120 74 L 121 84 L 124 77 L 120 74 Z " fill="rgb(193,101,49)"/><path d=" M 112 217 L 123 231 L 128 208 L 112 217 Z " fill="rgb(141,169,180)"/><path d=" M 140 133 L 141 119 L 144 120 L 140 133 Z " fill="rgb(29,58,67)"/><path d=" M 91 259 L 97 272 L 98 265 L 91 259 Z " fill="rgb(74,111,125)"/><path d=" M 103 289 L 105 300 L 110 300 L 103 289 Z " fill="rgb(76,110,123)"/><path d=" M 152 126 L 157 128 L 169 134 L 152 126 Z " fill="rgb(198,165,154)"/><path d=" M 123 292 L 127 281 L 135 300 L 123 292 Z " fill="rgb(80,119,133)"/><path d=" M 169 245 L 174 263 L 184 244 L 169 245 Z " fill="rgb(1,15,25)"/><path d=" M 105 192 L 130 173 L 133 192 L 105 192 Z " fill="rgb(147,175,187)"/><path d=" M 77 118 L 85 111 L 91 120 L 77 118 Z " fill="rgb(134,160,171)"/><path d=" M 122 141 L 124 146 L 135 144 L 122 141 Z " fill="rgb(135,159,169)"/><path d=" M 127 23 L 135 24 L 138 18 L 127 23 Z " fill="rgb(1,18,28)"/><path d=" M 137 28 L 147 21 L 149 30 L 137 28 Z " fill="rgb(7,25,32)"/><path d=" M 0 207 L 0 230 L 16 227 L 0 207 Z " fill="rgb(229,137,110)"/><path d=" M 256 210 L 257 258 L 300 237 L 256 210 Z " fill="rgb(229,138,110)"/><path d=" M 91 70 L 97 76 L 99 70 L 91 70 Z " fill="rgb(133,105,98)"/><path d=" M 144 120 L 153 118 L 157 128 L 144 120 Z " fill="rgb(226,136,109)"/><path d=" M 130 95 L 131 88 L 131 98 L 130 95 Z " fill="rgb(198,128,83)"/><path d=" M 256 210 L 300 187 L 300 237 L 256 210 Z " fill="rgb(229,138,110)"/><path d=" M 88 65 L 93 65 L 97 56 L 88 65 Z " fill="rgb(21,27,27)"/><path d=" M 186 238 L 194 276 L 198 253 L 186 238 Z " fill="rgb(155,182,194)"/><path d=" M 153 118 L 157 128 L 162 114 L 153 118 Z " fill="rgb(229,137,109)"/><path d=" M 160 269 L 173 262 L 177 283 L 160 269 Z " fill="rgb(147,175,187)"/><path d=" M 162 145 L 163 140 L 169 140 L 162 145 Z " fill="rgb(149,177,188)"/><path d=" M 60 26 L 67 36 L 71 28 L 60 26 Z " fill="rgb(229,137,109)"/><path d=" M 140 58 L 141 77 L 152 64 L 140 58 Z " fill="rgb(227,151,110)"/><path d=" M 90 147 L 90 156 L 99 152 L 90 147 Z " fill="rgb(146,172,182)"/><path d=" M 33 119 L 56 140 L 63 116 L 33 119 Z " fill="rgb(229,138,110)"/><path d=" M 14 300 L 17 278 L 33 274 L 14 300 Z " fill="rgb(116,142,154)"/><path d=" M 0 207 L 14 207 L 16 196 L 0 207 Z " fill="rgb(227,139,112)"/><path d=" M 135 144 L 140 140 L 141 145 L 135 144 Z " fill="rgb(26,49,57)"/><path d=" M 91 259 L 92 271 L 97 272 L 91 259 Z " fill="rgb(34,78,92)"/><path d=" M 0 207 L 14 207 L 14 218 L 0 207 Z " fill="rgb(227,138,111)"/><path d=" M 120 15 L 126 15 L 127 23 L 120 15 Z " fill="rgb(5,20,34)"/><path d=" M 145 17 L 147 21 L 149 20 L 145 17 Z " fill="rgb(207,125,100)"/><path d=" M 104 230 L 112 217 L 123 231 L 104 230 Z " fill="rgb(120,148,159)"/><path d=" M 67 36 L 67 38 L 71 28 L 67 36 Z " fill="rgb(147,99,86)"/><path d=" M 81 94 L 84 84 L 88 85 L 81 94 Z " fill="rgb(93,69,64)"/><path d=" M 84 140 L 90 147 L 90 156 L 84 140 Z " fill="rgb(152,178,189)"/><path d=" M 107 76 L 112 77 L 113 70 L 107 76 Z " fill="rgb(194,136,105)"/><path d=" M 0 134 L 29 151 L 33 119 L 0 134 Z " fill="rgb(229,138,110)"/><path d=" M 155 92 L 160 102 L 161 80 L 155 92 Z " fill="rgb(183,129,104)"/><path d=" M 112 55 L 120 49 L 126 41 L 112 55 Z " fill="rgb(109,92,91)"/><path d=" M 194 276 L 196 289 L 200 300 L 194 276 Z " fill="rgb(104,134,144)"/><path d=" M 135 127 L 141 119 L 143 111 L 135 127 Z " fill="rgb(120,80,61)"/><path d=" M 142 17 L 145 17 L 147 21 L 142 17 Z " fill="rgb(49,38,36)"/><path d=" M 121 161 L 127 158 L 132 159 L 121 161 Z " fill="rgb(112,139,150)"/><path d=" M 147 21 L 149 30 L 153 34 L 147 21 Z " fill="rgb(13,17,18)"/><path d=" M 120 65 L 124 70 L 133 72 L 120 65 Z " fill="rgb(196,139,103)"/><path d=" M 205 182 L 216 232 L 256 210 L 205 182 Z " fill="rgb(229,138,110)"/><path d=" M 120 65 L 125 53 L 140 58 L 120 65 Z " fill="rgb(176,140,125)"/><path d=" M 60 26 L 73 0 L 77 20 L 60 26 Z " fill="rgb(229,138,110)"/><path d=" M 60 26 L 71 28 L 77 20 L 60 26 Z " fill="rgb(228,137,109)"/><path d=" M 121 84 L 122 91 L 130 95 L 121 84 Z " fill="rgb(231,146,102)"/><path d=" M 64 65 L 69 76 L 71 83 L 64 65 Z " fill="rgb(163,104,86)"/><path d=" M 161 80 L 167 78 L 168 84 L 161 80 Z " fill="rgb(230,137,110)"/><path d=" M 0 261 L 0 300 L 17 278 L 0 261 Z " fill="rgb(229,137,110)"/><path d=" M 67 38 L 71 28 L 73 34 L 67 38 Z " fill="rgb(14,42,52)"/><path d=" M 20 188 L 26 191 L 37 183 L 20 188 Z " fill="rgb(136,163,175)"/><path d=" M 71 28 L 73 34 L 78 21 L 71 28 Z " fill="rgb(9,26,34)"/><path d=" M 110 63 L 120 65 L 125 53 L 110 63 Z " fill="rgb(173,141,128)"/><path d=" M 69 211 L 91 180 L 97 211 L 69 211 Z " fill="rgb(127,155,166)"/><path d=" M 167 147 L 167 155 L 180 150 L 167 147 Z " fill="rgb(229,138,110)"/><path d=" M 97 126 L 98 132 L 105 132 L 97 126 Z " fill="rgb(136,161,172)"/><path d=" M 157 247 L 158 245 L 162 250 L 157 247 Z " fill="rgb(104,133,143)"/><path d=" M 97 211 L 105 192 L 112 217 L 97 211 Z " fill="rgb(135,161,172)"/><path d=" M 71 83 L 74 84 L 77 88 L 71 83 Z " fill="rgb(218,132,105)"/><path d=" M 132 159 L 139 154 L 141 161 L 132 159 Z " fill="rgb(125,153,164)"/><path d=" M 56 300 L 70 295 L 75 300 L 56 300 Z " fill="rgb(95,131,144)"/><path d=" M 161 156 L 166 169 L 167 155 L 161 156 Z " fill="rgb(149,172,182)"/><path d=" M 113 257 L 123 231 L 126 247 L 113 257 Z " fill="rgb(115,145,157)"/><path d=" M 81 295 L 82 300 L 84 288 L 81 295 Z " fill="rgb(25,71,86)"/><path d=" M 140 275 L 160 269 L 170 300 L 140 275 Z " fill="rgb(140,169,181)"/><path d=" M 143 111 L 154 114 L 155 110 L 143 111 Z " fill="rgb(150,99,72)"/><path d=" M 177 283 L 178 286 L 179 295 L 177 283 Z " fill="rgb(68,85,96)"/><path d=" M 102 61 L 112 49 L 112 55 L 102 61 Z " fill="rgb(69,61,62)"/><path d=" M 177 203 L 182 220 L 182 226 L 177 203 Z " fill="rgb(120,149,158)"/><path d=" M 105 192 L 128 208 L 133 192 L 105 192 Z " fill="rgb(147,174,186)"/><path d=" M 151 161 L 154 170 L 158 162 L 151 161 Z " fill="rgb(102,135,147)"/><path d=" M 56 140 L 63 116 L 64 133 L 56 140 Z " fill="rgb(228,139,113)"/><path d=" M 104 101 L 106 117 L 111 120 L 104 101 Z " fill="rgb(211,143,91)"/><path d=" M 81 176 L 90 156 L 91 180 L 81 176 Z " fill="rgb(136,164,176)"/><path d=" M 133 192 L 137 188 L 142 192 L 133 192 Z " fill="rgb(139,166,176)"/><path d=" M 128 106 L 136 111 L 141 102 L 128 106 Z " fill="rgb(175,122,90)"/><path d=" M 136 111 L 141 102 L 143 111 L 136 111 Z " fill="rgb(163,110,78)"/><path d=" M 134 36 L 137 28 L 137 34 L 134 36 Z " fill="rgb(148,93,73)"/><path d=" M 216 232 L 222 270 L 257 258 L 216 232 Z " fill="rgb(229,138,110)"/><path d=" M 119 267 L 127 281 L 131 270 L 119 267 Z " fill="rgb(94,130,143)"/><path d=" M 182 226 L 184 244 L 189 259 L 182 226 Z " fill="rgb(42,81,94)"/><path d=" M 119 267 L 120 279 L 127 281 L 119 267 Z " fill="rgb(105,137,149)"/><path d=" M 81 268 L 86 279 L 91 274 L 81 268 Z " fill="rgb(87,126,140)"/><path d=" M 166 169 L 167 155 L 171 163 L 166 169 Z " fill="rgb(169,186,193)"/><path d=" M 144 120 L 152 126 L 157 128 L 144 120 Z " fill="rgb(178,159,154)"/><path d=" M 77 276 L 84 288 L 86 279 L 77 276 Z " fill="rgb(19,64,78)"/><path d=" M 90 156 L 99 152 L 105 164 L 90 156 Z " fill="rgb(147,173,184)"/><path d=" M 86 16 L 98 13 L 105 0 L 86 16 Z " fill="rgb(228,137,109)"/><path d=" M 126 247 L 131 270 L 140 275 L 126 247 Z " fill="rgb(132,161,172)"/><path d=" M 78 112 L 82 105 L 85 111 L 78 112 Z " fill="rgb(118,147,158)"/><path d=" M 132 159 L 135 167 L 141 161 L 132 159 Z " fill="rgb(140,166,177)"/><path d=" M 86 16 L 92 15 L 98 13 L 86 16 Z " fill="rgb(162,103,85)"/><path d=" M 152 15 L 153 28 L 166 33 L 152 15 Z " fill="rgb(229,137,109)"/><path d=" M 177 203 L 182 220 L 185 212 L 177 203 Z " fill="rgb(153,183,194)"/><path d=" M 192 273 L 192 278 L 196 289 L 192 273 Z " fill="rgb(17,48,58)"/><path d=" M 159 53 L 161 56 L 170 56 L 159 53 Z " fill="rgb(229,138,110)"/><path d=" M 130 173 L 135 167 L 146 176 L 130 173 Z " fill="rgb(123,147,158)"/><path d=" M 98 132 L 104 139 L 105 132 L 98 132 Z " fill="rgb(129,156,165)"/><path d=" M 119 42 L 126 41 L 134 36 L 119 42 Z " fill="rgb(61,65,70)"/><path d=" M 113 70 L 118 71 L 120 65 L 113 70 Z " fill="rgb(227,153,118)"/><path d=" M 67 38 L 69 57 L 73 34 L 67 38 Z " fill="rgb(3,27,37)"/><path d=" M 14 243 L 15 239 L 18 252 L 14 243 Z " fill="rgb(148,143,144)"/><path d=" M 66 277 L 69 264 L 81 268 L 66 277 Z " fill="rgb(121,154,167)"/><path d=" M 154 170 L 159 177 L 161 183 L 154 170 Z " fill="rgb(36,67,77)"/><path d=" M 174 0 L 199 46 L 230 0 L 174 0 Z " fill="rgb(229,137,109)"/><path d=" M 140 0 L 142 17 L 152 15 L 140 0 Z " fill="rgb(229,137,109)"/><path d=" M 75 300 L 81 295 L 82 300 L 75 300 Z " fill="rgb(96,130,142)"/><path d=" M 162 215 L 166 231 L 176 215 L 162 215 Z " fill="rgb(2,12,21)"/><path d=" M 137 34 L 139 43 L 148 38 L 137 34 Z " fill="rgb(188,129,101)"/><path d=" M 141 161 L 146 176 L 154 170 L 141 161 Z " fill="rgb(3,14,24)"/><path d=" M 176 300 L 179 295 L 180 300 L 176 300 Z " fill="rgb(127,152,163)"/><path d=" M 142 192 L 151 189 L 157 202 L 142 192 Z " fill="rgb(151,178,189)"/><path d=" M 22 216 L 27 237 L 41 212 L 22 216 Z " fill="rgb(121,149,161)"/><path d=" M 28 176 L 38 159 L 56 171 L 28 176 Z " fill="rgb(147,182,197)"/><path d=" M 112 77 L 120 74 L 121 84 L 112 77 Z " fill="rgb(238,148,107)"/><path d=" M 152 64 L 154 64 L 159 53 L 152 64 Z " fill="rgb(160,101,77)"/><path d=" M 139 154 L 146 150 L 146 154 L 139 154 Z " fill="rgb(16,38,46)"/><path d=" M 68 190 L 69 211 L 91 180 L 68 190 Z " fill="rgb(132,159,170)"/><path d=" M 91 70 L 97 76 L 97 82 L 91 70 Z " fill="rgb(140,102,91)"/><path d=" M 112 77 L 112 81 L 122 91 L 112 77 Z " fill="rgb(214,113,34)"/><path d=" M 128 125 L 135 127 L 136 111 L 128 125 Z " fill="rgb(165,123,99)"/><path d=" M 84 74 L 88 65 L 93 65 L 84 74 Z " fill="rgb(46,42,43)"/><path d=" M 135 167 L 141 161 L 146 176 L 135 167 Z " fill="rgb(138,163,173)"/><path d=" M 126 152 L 127 158 L 134 148 L 126 152 Z " fill="rgb(11,24,32)"/><path d=" M 257 162 L 259 111 L 300 138 L 257 162 Z " fill="rgb(229,138,110)"/><path d=" M 66 277 L 77 276 L 81 268 L 66 277 Z " fill="rgb(103,140,153)"/><path d=" M 142 192 L 143 190 L 148 182 L 142 192 Z " fill="rgb(71,101,115)"/><path d=" M 14 207 L 22 216 L 26 191 L 14 207 Z " fill="rgb(117,146,158)"/><path d=" M 133 28 L 134 36 L 137 28 L 133 28 Z " fill="rgb(151,108,95)"/><path d=" M 63 116 L 64 133 L 77 118 L 63 116 Z " fill="rgb(229,138,110)"/><path d=" M 170 56 L 182 82 L 199 46 L 170 56 Z " fill="rgb(230,137,110)"/><path d=" M 158 245 L 160 238 L 164 237 L 158 245 Z " fill="rgb(45,76,87)"/><path d=" M 39 50 L 63 51 L 64 65 L 39 50 Z " fill="rgb(229,138,110)"/><path d=" M 159 63 L 161 80 L 167 78 L 159 63 Z " fill="rgb(230,149,114)"/><path d=" M 159 53 L 166 33 L 170 56 L 159 53 Z " fill="rgb(229,137,110)"/><path d=" M 22 216 L 38 197 L 41 212 L 22 216 Z " fill="rgb(125,153,165)"/><path d=" M 108 85 L 112 81 L 114 93 L 108 85 Z " fill="rgb(194,124,74)"/><path d=" M 50 289 L 66 277 L 70 295 L 50 289 Z " fill="rgb(108,140,152)"/><path d=" M 194 276 L 198 253 L 202 276 L 194 276 Z " fill="rgb(156,185,198)"/><path d=" M 230 0 L 252 55 L 300 0 L 230 0 Z " fill="rgb(230,137,109)"/><path d=" M 84 74 L 91 70 L 93 65 L 84 74 Z " fill="rgb(80,60,56)"/><path d=" M 78 112 L 82 100 L 82 105 L 78 112 Z " fill="rgb(139,153,159)"/><path d=" M 105 132 L 106 117 L 111 120 L 105 132 Z " fill="rgb(5,4,4)"/><path d=" M 178 286 L 192 278 L 196 289 L 178 286 Z " fill="rgb(0,7,14)"/><path d=" M 105 164 L 105 192 L 130 173 L 105 164 Z " fill="rgb(147,174,186)"/><path d=" M 138 18 L 142 17 L 147 21 L 138 18 Z " fill="rgb(9,30,39)"/><path d=" M 140 140 L 141 145 L 147 139 L 140 140 Z " fill="rgb(63,99,113)"/><path d=" M 104 230 L 113 257 L 123 231 L 104 230 Z " fill="rgb(120,146,158)"/><path d=" M 166 169 L 173 173 L 173 182 L 166 169 Z " fill="rgb(159,177,184)"/><path d=" M 97 76 L 103 71 L 107 76 L 97 76 Z " fill="rgb(178,146,133)"/><path d=" M 99 70 L 102 61 L 112 55 L 99 70 Z " fill="rgb(103,78,74)"/><path d=" M 103 71 L 110 63 L 113 70 L 103 71 Z " fill="rgb(186,150,133)"/><path d=" M 141 102 L 143 111 L 155 110 L 141 102 Z " fill="rgb(168,115,84)"/><path d=" M 104 101 L 108 85 L 114 93 L 104 101 Z " fill="rgb(196,133,88)"/><path d=" M 14 207 L 14 218 L 22 216 L 14 207 Z " fill="rgb(114,141,153)"/><path d=" M 63 116 L 78 112 L 82 100 L 63 116 Z " fill="rgb(228,138,111)"/><path d=" M 169 245 L 173 262 L 174 263 L 169 245 Z " fill="rgb(82,104,114)"/><path d=" M 70 295 L 77 276 L 81 295 L 70 295 Z " fill="rgb(105,140,153)"/><path d=" M 141 119 L 143 111 L 154 114 L 141 119 Z " fill="rgb(127,78,55)"/><path d=" M 147 139 L 152 141 L 153 134 L 147 139 Z " fill="rgb(144,165,175)"/><path d=" M 137 180 L 144 182 L 148 182 L 137 180 Z " fill="rgb(38,53,65)"/><path d=" M 166 169 L 168 187 L 173 182 L 166 169 Z " fill="rgb(139,160,170)"/><path d=" M 157 128 L 162 114 L 169 134 L 157 128 Z " fill="rgb(229,138,110)"/><path d=" M 122 34 L 127 23 L 134 36 L 122 34 Z " fill="rgb(5,28,35)"/><path d=" M 51 89 L 71 83 L 82 100 L 51 89 Z " fill="rgb(229,137,110)"/><path d=" M 257 258 L 300 237 L 300 300 L 257 258 Z " fill="rgb(229,138,110)"/><path d=" M 86 279 L 91 274 L 92 287 L 86 279 Z " fill="rgb(6,44,57)"/><path d=" M 175 208 L 177 203 L 182 226 L 175 208 Z " fill="rgb(72,107,118)"/><path d=" M 33 274 L 35 300 L 50 289 L 33 274 Z " fill="rgb(111,139,151)"/><path d=" M 147 229 L 159 232 L 162 217 L 147 229 Z " fill="rgb(151,179,191)"/><path d=" M 153 118 L 161 113 L 162 114 L 153 118 Z " fill="rgb(169,102,79)"/><path d=" M 105 132 L 111 136 L 122 141 L 105 132 Z " fill="rgb(55,67,75)"/><path d=" M 84 288 L 90 294 L 92 287 L 84 288 Z " fill="rgb(41,85,99)"/><path d=" M 112 20 L 122 34 L 127 23 L 112 20 Z " fill="rgb(1,19,29)"/><path d=" M 127 281 L 135 287 L 135 300 L 127 281 Z " fill="rgb(99,135,148)"/><path d=" M 126 15 L 127 23 L 138 18 L 126 15 Z " fill="rgb(2,19,31)"/><path d=" M 82 105 L 91 119 L 98 113 L 82 105 Z " fill="rgb(4,4,6)"/><path d=" M 22 216 L 26 191 L 38 197 L 22 216 Z " fill="rgb(123,151,163)"/><path d=" M 105 0 L 127 13 L 140 0 L 105 0 Z " fill="rgb(229,138,110)"/><path d=" M 162 114 L 169 134 L 184 116 L 162 114 Z " fill="rgb(229,138,110)"/><path d=" M 176 215 L 182 226 L 184 244 L 176 215 Z " fill="rgb(23,59,70)"/><path d=" M 180 150 L 184 116 L 218 137 L 180 150 Z " fill="rgb(229,138,110)"/><path d=" M 152 155 L 154 146 L 161 156 L 152 155 Z " fill="rgb(135,163,174)"/><path d=" M 182 82 L 184 116 L 217 92 L 182 82 Z " fill="rgb(229,138,110)"/><path d=" M 158 245 L 162 250 L 164 237 L 158 245 Z " fill="rgb(12,31,39)"/><path d=" M 38 159 L 56 140 L 65 146 L 38 159 Z " fill="rgb(146,185,202)"/><path d=" M 110 300 L 111 292 L 120 300 L 110 300 Z " fill="rgb(111,144,156)"/><path d=" M 146 176 L 148 182 L 151 189 L 146 176 Z " fill="rgb(75,105,117)"/><path d=" M 82 100 L 86 89 L 86 106 L 82 100 Z " fill="rgb(141,103,86)"/><path d=" M 186 238 L 194 239 L 198 253 L 186 238 Z " fill="rgb(155,180,191)"/><path d=" M 185 212 L 205 182 L 216 232 L 185 212 Z " fill="rgb(229,138,110)"/><path d=" M 168 187 L 173 182 L 177 203 L 168 187 Z " fill="rgb(135,162,173)"/><path d=" M 120 153 L 121 161 L 127 158 L 120 153 Z " fill="rgb(129,157,168)"/><path d=" M 126 15 L 127 13 L 142 17 L 126 15 Z " fill="rgb(229,138,110)"/><path d=" M 124 146 L 134 148 L 141 145 L 124 146 Z " fill="rgb(118,143,153)"/><path d=" M 97 211 L 104 230 L 112 217 L 97 211 Z " fill="rgb(122,150,161)"/><path d=" M 137 188 L 142 192 L 143 190 L 137 188 Z " fill="rgb(36,63,74)"/><path d=" M 0 300 L 14 293 L 14 300 L 0 300 Z " fill="rgb(229,138,110)"/><path d=" M 103 71 L 107 76 L 113 70 L 103 71 Z " fill="rgb(195,158,140)"/><path d=" M 91 119 L 105 132 L 106 117 L 91 119 Z " fill="rgb(0,0,1)"/><path d=" M 139 43 L 147 49 L 148 38 L 139 43 Z " fill="rgb(204,142,109)"/><path d=" M 17 261 L 17 278 L 33 274 L 17 261 Z " fill="rgb(121,146,157)"/><path d=" M 178 286 L 179 295 L 180 300 L 178 286 Z " fill="rgb(41,55,65)"/><path d=" M 79 257 L 81 268 L 92 271 L 79 257 Z " fill="rgb(118,150,162)"/><path d=" M 98 265 L 110 276 L 113 257 L 98 265 Z " fill="rgb(126,156,168)"/><path d=" M 168 197 L 175 208 L 176 215 L 168 197 Z " fill="rgb(17,55,66)"/><path d=" M 167 155 L 171 163 L 180 150 L 167 155 Z " fill="rgb(229,139,111)"/><path d=" M 76 246 L 79 257 L 85 251 L 76 246 Z " fill="rgb(115,142,153)"/><path d=" M 111 120 L 118 123 L 128 125 L 111 120 Z " fill="rgb(118,89,76)"/><path d=" M 98 113 L 104 101 L 106 117 L 98 113 Z " fill="rgb(203,139,88)"/><path d=" M 99 152 L 108 157 L 112 156 L 99 152 Z " fill="rgb(104,135,147)"/><path d=" M 161 183 L 168 192 L 168 197 L 161 183 Z " fill="rgb(40,82,94)"/><path d=" M 118 123 L 122 141 L 135 127 L 118 123 Z " fill="rgb(1,1,2)"/><path d=" M 84 140 L 92 137 L 99 152 L 84 140 Z " fill="rgb(142,168,179)"/><path d=" M 69 264 L 76 246 L 79 257 L 69 264 Z " fill="rgb(116,149,161)"/><path d=" M 0 178 L 28 176 L 29 151 L 0 178 Z " fill="rgb(229,138,110)"/><path d=" M 167 78 L 170 56 L 182 82 L 167 78 Z " fill="rgb(230,138,110)"/><path d=" M 69 76 L 77 88 L 80 77 L 69 76 Z " fill="rgb(5,11,12)"/><path d=" M 93 65 L 97 56 L 102 61 L 93 65 Z " fill="rgb(43,41,42)"/><path d=" M 118 71 L 124 70 L 124 77 L 118 71 Z " fill="rgb(161,42,15)"/><path d=" M 27 237 L 41 212 L 49 241 L 27 237 Z " fill="rgb(119,147,159)"/><path d=" M 159 232 L 160 238 L 166 231 L 159 232 Z " fill="rgb(140,168,181)"/><path d=" M 140 0 L 152 15 L 174 0 L 140 0 Z " fill="rgb(229,138,110)"/><path d=" M 182 82 L 199 46 L 217 92 L 182 82 Z " fill="rgb(229,138,110)"/><path d=" M 97 56 L 102 61 L 112 49 L 97 56 Z " fill="rgb(41,42,43)"/><path d=" M 57 218 L 68 233 L 69 211 L 57 218 Z " fill="rgb(109,135,146)"/><path d=" M 151 189 L 154 194 L 161 183 L 151 189 Z " fill="rgb(1,14,24)"/><path d=" M 105 192 L 112 217 L 128 208 L 105 192 Z " fill="rgb(141,169,181)"/><path d=" M 39 50 L 51 89 L 64 65 L 39 50 Z " fill="rgb(229,137,109)"/><path d=" M 33 119 L 51 89 L 63 116 L 33 119 Z " fill="rgb(229,138,110)"/><path d=" M 112 77 L 121 84 L 122 91 L 112 77 Z " fill="rgb(236,139,81)"/><path d=" M 164 237 L 166 231 L 169 245 L 164 237 Z " fill="rgb(134,161,170)"/><path d=" M 161 156 L 167 147 L 167 155 L 161 156 Z " fill="rgb(159,182,192)"/><path d=" M 14 243 L 17 261 L 18 252 L 14 243 Z " fill="rgb(220,138,113)"/><path d=" M 64 49 L 67 36 L 67 38 L 64 49 Z " fill="rgb(105,83,76)"/><path d=" M 128 106 L 131 98 L 141 102 L 128 106 Z " fill="rgb(188,131,97)"/><path d=" M 92 15 L 98 35 L 112 20 L 92 15 Z " fill="rgb(1,12,20)"/><path d=" M 120 300 L 123 292 L 135 300 L 120 300 Z " fill="rgb(88,125,138)"/><path d=" M 94 106 L 98 113 L 104 101 L 94 106 Z " fill="rgb(188,131,90)"/><path d=" M 49 241 L 57 218 L 68 233 L 49 241 Z " fill="rgb(124,151,163)"/><path d=" M 108 157 L 112 156 L 121 161 L 108 157 Z " fill="rgb(93,129,142)"/><path d=" M 139 154 L 141 161 L 146 154 L 139 154 Z " fill="rgb(10,22,30)"/><path d=" M 252 55 L 300 0 L 300 77 L 252 55 Z " fill="rgb(229,137,110)"/><path d=" M 160 102 L 161 80 L 168 84 L 160 102 Z " fill="rgb(227,136,108)"/><path d=" M 60 26 L 63 51 L 67 36 L 60 26 Z " fill="rgb(229,137,109)"/><path d=" M 104 281 L 110 300 L 111 292 L 104 281 Z " fill="rgb(98,132,145)"/><path d=" M 180 150 L 205 182 L 218 137 L 180 150 Z " fill="rgb(229,138,110)"/><path d=" M 26 191 L 37 183 L 38 197 L 26 191 Z " fill="rgb(129,157,169)"/><path d=" M 0 0 L 0 31 L 34 0 L 0 0 Z " fill="rgb(229,138,110)"/><path d=" M 90 156 L 91 180 L 105 164 L 90 156 Z " fill="rgb(144,171,183)"/><path d=" M 149 20 L 152 15 L 153 28 L 149 20 Z " fill="rgb(225,135,108)"/><path d=" M 71 28 L 77 20 L 78 21 L 71 28 Z " fill="rgb(150,99,84)"/><path d=" M 91 119 L 91 120 L 97 126 L 91 119 Z " fill="none"/><path d=" M 77 118 L 91 120 L 92 137 L 77 118 Z " fill="rgb(131,159,171)"/><path d=" M 141 77 L 152 64 L 154 69 L 141 77 Z " fill="rgb(226,150,106)"/><path d=" M 167 147 L 169 140 L 180 150 L 167 147 Z " fill="rgb(228,138,111)"/><path d=" M 162 250 L 169 245 L 173 262 L 162 250 Z " fill="rgb(144,173,184)"/><path d=" M 137 34 L 147 34 L 148 38 L 137 34 Z " fill="rgb(155,96,74)"/><path d=" M 91 274 L 92 287 L 97 272 L 91 274 Z " fill="rgb(17,60,73)"/><path d=" M 69 57 L 88 65 L 97 56 L 69 57 Z " fill="rgb(3,10,13)"/><path d=" M 122 141 L 135 127 L 135 144 L 122 141 Z " fill="rgb(2,4,8)"/><path d=" M 121 84 L 124 77 L 126 84 L 121 84 Z " fill="rgb(86,18,5)"/><path d=" M 168 192 L 168 197 L 175 208 L 168 192 Z " fill="rgb(37,79,92)"/><path d=" M 80 77 L 84 74 L 84 84 L 80 77 Z " fill="rgb(52,44,43)"/><path d=" M 135 287 L 135 300 L 140 275 L 135 287 Z " fill="rgb(128,157,169)"/><path d=" M 131 28 L 133 28 L 134 36 L 131 28 Z " fill="rgb(77,64,66)"/><path d=" M 154 64 L 159 53 L 161 56 L 154 64 Z " fill="rgb(88,53,44)"/><path d=" M 184 244 L 189 259 L 192 273 L 184 244 Z " fill="rgb(39,72,84)"/><path d=" M 157 202 L 162 215 L 162 217 L 157 202 Z " fill="rgb(72,93,104)"/><path d=" M 151 161 L 152 155 L 161 156 L 151 161 Z " fill="rgb(125,155,167)"/><path d=" M 152 141 L 162 145 L 163 140 L 152 141 Z " fill="rgb(145,170,181)"/><path d=" M 80 77 L 84 74 L 88 65 L 80 77 Z " fill="rgb(31,32,33)"/><path d=" M 192 273 L 194 276 L 196 289 L 192 273 Z " fill="rgb(75,110,122)"/><path d=" M 157 202 L 162 215 L 168 197 L 157 202 Z " fill="rgb(2,12,21)"/><path d=" M 198 253 L 202 276 L 204 281 L 198 253 Z " fill="rgb(200,162,151)"/><path d=" M 69 57 L 73 34 L 97 56 L 69 57 Z " fill="rgb(1,11,17)"/><path d=" M 118 93 L 120 98 L 131 98 L 118 93 Z " fill="rgb(172,97,49)"/><path d=" M 159 177 L 166 169 L 168 187 L 159 177 Z " fill="rgb(126,149,159)"/><path d=" M 126 247 L 147 229 L 157 247 L 126 247 Z " fill="rgb(143,171,184)"/><path d=" M 18 252 L 33 274 L 48 256 L 18 252 Z " fill="rgb(116,145,157)"/><path d=" M 64 49 L 64 56 L 67 38 L 64 49 Z " fill="rgb(56,62,64)"/><path d=" M 68 233 L 69 264 L 76 246 L 68 233 Z " fill="rgb(117,148,159)"/><path d=" M 171 163 L 173 173 L 180 150 L 171 163 Z " fill="rgb(229,138,111)"/><path d=" M 118 71 L 120 74 L 124 77 L 118 71 Z " fill="rgb(184,86,39)"/><path d=" M 92 137 L 99 152 L 112 156 L 92 137 Z " fill="rgb(133,158,169)"/><path d=" M 131 270 L 135 287 L 140 275 L 131 270 Z " fill="rgb(129,159,171)"/><path d=" M 146 150 L 146 154 L 151 161 L 146 150 Z " fill="rgb(26,72,84)"/><path d=" M 110 276 L 119 267 L 120 279 L 110 276 Z " fill="rgb(123,152,163)"/><path d=" M 135 24 L 137 28 L 138 18 L 135 24 Z " fill="rgb(18,26,31)"/><path d=" M 174 263 L 184 244 L 192 273 L 174 263 Z " fill="rgb(1,15,24)"/><path d=" M 69 264 L 79 257 L 81 268 L 69 264 Z " fill="rgb(130,162,176)"/><path d=" M 121 161 L 132 159 L 135 167 L 121 161 Z " fill="rgb(142,167,178)"/><path d=" M 204 281 L 206 290 L 210 300 L 204 281 Z " fill="rgb(201,164,154)"/><path d=" M 29 151 L 33 119 L 56 140 L 29 151 Z " fill="rgb(229,138,110)"/><path d=" M 127 23 L 131 28 L 134 36 L 127 23 Z " fill="rgb(29,39,44)"/><path d=" M 169 134 L 180 150 L 184 116 L 169 134 Z " fill="rgb(229,138,110)"/><path d=" M 135 144 L 140 133 L 141 119 L 135 144 Z " fill="rgb(14,50,61)"/><path d=" M 99 152 L 105 164 L 108 157 L 99 152 Z " fill="rgb(145,169,180)"/><path d=" M 154 64 L 159 63 L 161 56 L 154 64 Z " fill="rgb(187,121,97)"/><path d=" M 103 289 L 104 281 L 110 300 L 103 289 Z " fill="rgb(79,116,129)"/><path d=" M 0 178 L 0 207 L 16 196 L 0 178 Z " fill="rgb(230,138,110)"/><path d=" M 91 119 L 97 126 L 105 132 L 91 119 Z " fill="rgb(55,69,76)"/><path d=" M 114 93 L 118 93 L 120 98 L 114 93 Z " fill="rgb(179,115,72)"/><path d=" M 182 220 L 186 238 L 194 239 L 182 220 Z " fill="rgb(152,180,192)"/><path d=" M 122 91 L 130 95 L 131 98 L 122 91 Z " fill="rgb(191,107,50)"/><path d=" M 154 146 L 161 156 L 162 145 L 154 146 Z " fill="rgb(155,181,192)"/><path d=" M 160 102 L 161 113 L 162 114 L 160 102 Z " fill="rgb(211,146,125)"/><path d=" M 217 92 L 218 137 L 259 111 L 217 92 Z " fill="rgb(229,138,110)"/><path d=" M 68 190 L 81 176 L 91 180 L 68 190 Z " fill="rgb(129,157,169)"/><path d=" M 105 164 L 121 161 L 130 173 L 105 164 Z " fill="rgb(135,162,173)"/><path d=" M 185 212 L 194 239 L 216 232 L 185 212 Z " fill="rgb(229,138,110)"/><path d=" M 127 158 L 132 159 L 139 154 L 127 158 Z " fill="rgb(36,60,69)"/><path d=" M 135 127 L 136 111 L 143 111 L 135 127 Z " fill="rgb(151,104,79)"/><path d=" M 99 70 L 110 63 L 112 55 L 99 70 Z " fill="rgb(135,103,96)"/><path d=" M 125 53 L 133 41 L 139 43 L 125 53 Z " fill="rgb(159,134,128)"/><path d=" M 147 139 L 152 126 L 153 134 L 147 139 Z " fill="rgb(130,153,162)"/><path d=" M 91 119 L 98 113 L 106 117 L 91 119 Z " fill="rgb(10,7,6)"/><path d=" M 15 239 L 16 227 L 27 237 L 15 239 Z " fill="rgb(134,155,165)"/><path d=" M 153 28 L 153 34 L 166 33 L 153 28 Z " fill="rgb(227,136,109)"/><path d=" M 113 70 L 118 71 L 120 74 L 113 70 Z " fill="rgb(216,116,64)"/><path d=" M 120 15 L 126 15 L 127 13 L 120 15 Z " fill="rgb(229,137,109)"/><path d=" M 84 74 L 84 84 L 88 85 L 84 74 Z " fill="rgb(76,55,51)"/><path d=" M 121 84 L 130 95 L 131 88 L 121 84 Z " fill="rgb(228,153,115)"/><path d=" M 92 15 L 98 13 L 111 14 L 92 15 Z " fill="rgb(22,42,49)"/><path d=" M 0 178 L 20 188 L 28 176 L 0 178 Z " fill="rgb(229,138,110)"/><path d=" M 65 146 L 84 140 L 90 156 L 65 146 Z " fill="rgb(142,170,182)"/><path d=" M 157 247 L 160 269 L 162 250 L 157 247 Z " fill="rgb(144,171,182)"/><path d=" M 104 281 L 110 276 L 111 292 L 104 281 Z " fill="rgb(117,149,161)"/><path d=" M 90 294 L 92 287 L 103 289 L 90 294 Z " fill="rgb(46,88,102)"/><path d=" M 173 182 L 177 203 L 185 212 L 173 182 Z " fill="rgb(162,183,193)"/><path d=" M 205 182 L 218 137 L 257 162 L 205 182 Z " fill="rgb(229,137,110)"/><path d=" M 37 183 L 38 197 L 50 196 L 37 183 Z " fill="rgb(132,159,171)"/><path d=" M 86 89 L 88 85 L 97 82 L 86 89 Z " fill="rgb(141,109,100)"/><path d=" M 154 114 L 155 110 L 161 113 L 154 114 Z " fill="rgb(157,109,87)"/><path d=" M 142 17 L 145 17 L 152 15 L 142 17 Z " fill="rgb(230,138,110)"/><path d=" M 69 76 L 74 84 L 77 88 L 69 76 Z " fill="rgb(116,76,63)"/><path d=" M 38 197 L 50 196 L 57 218 L 38 197 Z " fill="rgb(121,149,160)"/><path d=" M 155 110 L 160 102 L 161 113 L 155 110 Z " fill="rgb(189,136,113)"/><path d=" M 38 159 L 56 171 L 65 146 L 38 159 Z " fill="rgb(146,181,196)"/><path d=" M 39 50 L 60 26 L 63 51 L 39 50 Z " fill="rgb(229,138,110)"/><path d=" M 96 93 L 104 101 L 108 85 L 96 93 Z " fill="rgb(179,127,99)"/><path d=" M 217 92 L 252 55 L 259 111 L 217 92 Z " fill="rgb(229,138,110)"/><path d=" M 173 182 L 185 212 L 205 182 L 173 182 Z " fill="rgb(229,138,110)"/><path d=" M 82 300 L 84 288 L 90 294 L 82 300 Z " fill="rgb(65,104,117)"/><path d=" M 154 170 L 158 162 L 166 169 L 154 170 Z " fill="rgb(102,134,145)"/><path d=" M 200 300 L 206 290 L 210 300 L 200 300 Z " fill="rgb(150,174,184)"/><path d=" M 91 245 L 98 265 L 113 257 L 91 245 Z " fill="rgb(125,154,166)"/><path d=" M 38 197 L 41 212 L 57 218 L 38 197 Z " fill="rgb(134,160,171)"/><path d=" M 146 154 L 151 161 L 154 170 L 146 154 Z " fill="rgb(36,71,82)"/><path d=" M 76 246 L 82 232 L 91 245 L 76 246 Z " fill="rgb(111,139,150)"/><path d=" M 148 38 L 149 30 L 153 34 L 148 38 Z " fill="rgb(163,106,88)"/><path d=" M 140 133 L 144 120 L 147 125 L 140 133 Z " fill="rgb(38,83,98)"/><path d=" M 77 88 L 80 77 L 84 84 L 77 88 Z " fill="rgb(20,24,22)"/><path d=" M 123 231 L 126 247 L 147 229 L 123 231 Z " fill="rgb(141,169,181)"/><path d=" M 147 49 L 153 34 L 159 53 L 147 49 Z " fill="rgb(213,142,109)"/><path d=" M 98 265 L 104 281 L 110 276 L 98 265 Z " fill="rgb(111,143,156)"/><path d=" M 64 56 L 67 38 L 69 57 L 64 56 Z " fill="rgb(3,34,45)"/><path d=" M 77 118 L 78 112 L 85 111 L 77 118 Z " fill="rgb(150,161,167)"/><path d=" M 48 256 L 66 277 L 69 264 L 48 256 Z " fill="rgb(111,143,156)"/><path d=" M 216 232 L 256 210 L 257 258 L 216 232 Z " fill="rgb(229,138,110)"/><path d=" M 82 300 L 90 294 L 105 300 L 82 300 Z " fill="rgb(83,115,127)"/><path d=" M 131 88 L 141 77 L 155 92 L 131 88 Z " fill="rgb(210,150,118)"/><path d=" M 64 133 L 65 146 L 84 140 L 64 133 Z " fill="rgb(142,175,190)"/><path d=" M 133 192 L 137 180 L 137 188 L 133 192 Z " fill="rgb(113,141,153)"/><path d=" M 86 106 L 94 106 L 96 93 L 86 106 Z " fill="rgb(164,114,85)"/><path d=" M 173 262 L 174 263 L 176 274 L 173 262 Z " fill="rgb(82,102,112)"/><path d=" M 169 134 L 169 140 L 180 150 L 169 134 Z " fill="rgb(227,140,113)"/><path d=" M 51 89 L 64 65 L 71 83 L 51 89 Z " fill="rgb(229,137,109)"/><path d=" M 125 53 L 139 43 L 140 58 L 125 53 Z " fill="rgb(176,144,132)"/><path d=" M 160 102 L 162 114 L 184 116 L 160 102 Z " fill="rgb(229,138,110)"/><path d=" M 128 208 L 147 229 L 157 202 L 128 208 Z " fill="rgb(148,176,188)"/><path d=" M 124 77 L 126 84 L 131 88 L 124 77 Z " fill="rgb(219,129,64)"/><path d=" M 184 116 L 217 92 L 218 137 L 184 116 Z " fill="rgb(229,138,110)"/><path d=" M 131 88 L 131 98 L 141 102 L 131 88 Z " fill="rgb(205,139,100)"/><path d=" M 105 132 L 118 123 L 122 141 L 105 132 Z " fill="rgb(0,1,2)"/><path d=" M 124 77 L 131 88 L 133 72 L 124 77 Z " fill="rgb(227,155,110)"/><path d=" M 107 76 L 108 85 L 112 81 L 107 76 Z " fill="rgb(195,136,104)"/><path d=" M 146 176 L 151 189 L 161 183 L 146 176 Z " fill="rgb(2,15,25)"/><path d=" M 162 215 L 168 197 L 176 215 L 162 215 Z " fill="rgb(0,7,14)"/><path d=" M 18 252 L 27 237 L 48 256 L 18 252 Z " fill="rgb(117,145,156)"/><path d=" M 77 88 L 81 94 L 82 100 L 77 88 Z " fill="rgb(202,124,100)"/><path d=" M 86 106 L 94 106 L 98 113 L 86 106 Z " fill="rgb(160,106,69)"/><path d=" M 69 57 L 69 76 L 88 65 L 69 57 Z " fill="rgb(1,4,8)"/><path d=" M 120 65 L 133 72 L 140 58 L 120 65 Z " fill="rgb(191,151,133)"/><path d=" M 51 89 L 63 116 L 82 100 L 51 89 Z " fill="rgb(229,137,110)"/><path d=" M 166 231 L 169 245 L 184 244 L 166 231 Z " fill="rgb(2,16,26)"/><path d=" M 91 180 L 97 211 L 105 192 L 91 180 Z " fill="rgb(137,164,175)"/><path d=" M 14 207 L 16 196 L 26 191 L 14 207 Z " fill="rgb(138,162,174)"/><path d=" M 147 229 L 157 202 L 162 217 L 147 229 Z " fill="rgb(150,178,189)"/><path d=" M 112 49 L 119 42 L 126 41 L 112 49 Z " fill="rgb(48,52,56)"/><path d=" M 92 137 L 98 132 L 104 139 L 92 137 Z " fill="rgb(109,141,153)"/><path d=" M 124 70 L 124 77 L 133 72 L 124 70 Z " fill="rgb(210,140,91)"/><path d=" M 91 245 L 91 259 L 98 265 L 91 245 Z " fill="rgb(97,130,142)"/><path d=" M 73 0 L 77 20 L 86 16 L 73 0 Z " fill="rgb(228,137,109)"/><path d=" M 98 13 L 105 0 L 111 14 L 98 13 Z " fill="rgb(226,136,108)"/><path d=" M 91 245 L 104 230 L 113 257 L 91 245 Z " fill="rgb(132,159,170)"/><path d=" M 141 161 L 146 154 L 154 170 L 141 161 Z " fill="rgb(1,7,13)"/><path d=" M 20 188 L 29 182 L 37 183 L 20 188 Z " fill="rgb(115,147,159)"/><path d=" M 137 180 L 146 176 L 148 182 L 137 180 Z " fill="rgb(138,160,171)"/><path d=" M 111 292 L 120 279 L 123 292 L 111 292 Z " fill="rgb(115,146,158)"/><path d=" M 147 21 L 149 20 L 153 28 L 147 21 Z " fill="rgb(121,82,68)"/><path d=" M 28 176 L 29 151 L 38 159 L 28 176 Z " fill="rgb(227,139,112)"/><path d=" M 186 238 L 189 259 L 194 276 L 186 238 Z " fill="rgb(126,155,166)"/><path d=" M 56 171 L 65 146 L 81 176 L 56 171 Z " fill="rgb(145,173,185)"/><path d=" M 104 101 L 120 98 L 128 106 L 104 101 Z " fill="rgb(205,143,102)"/><path d=" M 69 76 L 80 77 L 88 65 L 69 76 Z " fill="rgb(5,14,16)"/><path d=" M 77 118 L 84 140 L 92 137 L 77 118 Z " fill="rgb(139,167,179)"/><path d=" M 151 161 L 158 162 L 161 156 L 151 161 Z " fill="rgb(117,148,160)"/><path d=" M 82 105 L 85 111 L 91 119 L 82 105 Z " fill="rgb(38,54,61)"/><path d=" M 112 81 L 114 93 L 118 93 L 112 81 Z " fill="rgb(173,92,40)"/><path d=" M 82 100 L 82 105 L 86 106 L 82 100 Z " fill="rgb(47,74,84)"/><path d=" M 152 141 L 152 155 L 154 146 L 152 141 Z " fill="rgb(137,164,175)"/><path d=" M 91 120 L 92 137 L 98 132 L 91 120 Z " fill="rgb(121,150,162)"/><path d=" M 96 93 L 97 82 L 108 85 L 96 93 Z " fill="rgb(178,136,117)"/><path d=" M 107 76 L 112 77 L 112 81 L 107 76 Z " fill="rgb(196,129,88)"/><path d=" M 157 247 L 158 245 L 160 238 L 157 247 Z " fill="rgb(56,84,96)"/><path d=" M 141 102 L 155 110 L 160 102 L 141 102 Z " fill="rgb(180,124,92)"/><path d=" M 166 231 L 176 215 L 184 244 L 166 231 Z " fill="rgb(1,11,19)"/><path d=" M 194 276 L 204 281 L 206 290 L 194 276 Z " fill="rgb(152,181,193)"/><path d=" M 112 81 L 118 93 L 122 91 L 112 81 Z " fill="rgb(165,68,14)"/><path d=" M 0 86 L 0 134 L 33 119 L 0 86 Z " fill="rgb(229,138,110)"/><path d=" M 173 262 L 176 274 L 177 283 L 173 262 Z " fill="rgb(124,150,161)"/><path d=" M 124 146 L 126 152 L 134 148 L 124 146 Z " fill="rgb(74,106,117)"/><path d=" M 110 63 L 120 49 L 125 53 L 110 63 Z " fill="rgb(151,121,112)"/><path d=" M 92 15 L 111 14 L 112 20 L 92 15 Z " fill="rgb(3,24,35)"/><path d=" M 147 49 L 148 38 L 153 34 L 147 49 Z " fill="rgb(204,134,99)"/><path d=" M 210 300 L 222 270 L 245 300 L 210 300 Z " fill="rgb(229,138,110)"/><path d=" M 159 177 L 161 183 L 168 192 L 159 177 Z " fill="rgb(56,94,107)"/><path d=" M 73 0 L 86 16 L 105 0 L 73 0 Z " fill="rgb(229,137,109)"/><path d=" M 37 183 L 50 196 L 68 190 L 37 183 Z " fill="rgb(137,165,177)"/><path d=" M 17 261 L 18 252 L 33 274 L 17 261 Z " fill="rgb(119,145,156)"/><path d=" M 195 300 L 196 289 L 200 300 L 195 300 Z " fill="rgb(36,75,86)"/><path d=" M 128 106 L 128 125 L 136 111 L 128 106 Z " fill="rgb(182,137,109)"/><path d=" M 154 194 L 157 202 L 168 197 L 154 194 Z " fill="rgb(2,13,23)"/><path d=" M 257 162 L 300 138 L 300 187 L 257 162 Z " fill="rgb(229,138,110)"/><path d=" M 167 78 L 168 84 L 182 82 L 167 78 Z " fill="rgb(228,137,108)"/><path d=" M 146 176 L 154 170 L 161 183 L 146 176 Z " fill="rgb(1,12,20)"/><path d=" M 126 247 L 140 275 L 157 247 L 126 247 Z " fill="rgb(141,169,181)"/><path d=" M 92 287 L 97 272 L 103 289 L 92 287 Z " fill="rgb(44,87,101)"/><path d=" M 157 247 L 159 232 L 160 238 L 157 247 Z " fill="rgb(89,124,137)"/><path d=" M 105 0 L 111 14 L 127 13 L 105 0 Z " fill="rgb(229,137,110)"/><path d=" M 152 126 L 153 134 L 169 140 L 152 126 Z " fill="rgb(136,163,173)"/><path d=" M 84 74 L 88 85 L 91 70 L 84 74 Z " fill="rgb(104,72,64)"/><path d=" M 97 56 L 110 46 L 112 49 L 97 56 Z " fill="rgb(23,32,35)"/><path d=" M 170 300 L 177 283 L 179 295 L 170 300 Z " fill="rgb(135,164,176)"/><path d=" M 151 189 L 154 194 L 157 202 L 151 189 Z " fill="rgb(70,91,101)"/></g></svg>