<?xml version="1.0" encoding="UTF-8" standalone="no"?><!-- Generator: Gravit.io --><svg xmlns="http://www.w3.org/2000/svg" xmlns:xlink="http://www.w3.org/1999/xlink" style="isolation:isolate" viewBox="0 0 140 140" width="140pt" height="140pt"><defs><clipPath id="_clipPath_f6YzlzAqAbDJ3btOQeuAwOtoNt7JY5cT"><rect width="140" height="140"/></clipPath></defs><g clip-path="url(#_clipPath_f6YzlzAqAbDJ3btOQeuAwOtoNt7JY5cT)"><mask id="_mask_IPaxE7Gc6mGKQzJN0x3w65IKV08A06J7"><rect x="680" y="670" width="140" height="140" fill="white" stroke="none"/></mask><rect x="680" y="670" width="140" height="140" transform="matrix(1,0,0,1,0,0)" fill="rgb(255,192,173)"/><rect x="680" y="670" width="140" height="140" transform="matrix(1,0,0,1,0,0)" fill="rgb(255,192,173)" mask="url(#_mask_IPaxE7Gc6mGKQzJN0x3w65IKV08A06J7)" vector-effect="non-scaling-stroke" stroke-width="2" stroke="rgb(0,0,0)" stroke-linejoin="miter" stroke-linecap="square" stroke-miterlimit="2"/><circle vector-effect="non-scaling-stroke" cx="725" cy="715.0000000000002" r="20" fill="rgb(255,0,0)"/><circle vector-effect="non-scaling-stroke" cx="724.9999999999999" cy="765.0000000000001" r="20" fill="rgb(0,0,0)"/><path d=" M 714.202 778.701 C 710.718 779.207 714.487 779.605 719.269 783.559 C 719.599 783.832 720.592 784.142 720.923 784.45 C 721.308 784.809 721.377 785.632 721.75 786.041 C 721.931 786.975 719.601 789.385 719.563 789.493 C 708.258 804.055 723.966 803.312 740.647 776.535 Q 725.235 777.1 714.202 778.701 Z " fill="rgb(0,0,0)" vector-effect="non-scaling-stroke" stroke-width="1" stroke="rgb(0,0,0)" stroke-linejoin="miter" stroke-linecap="square" stroke-miterlimit="3"/><path d=" M 795 765 C 795 776.038 786.038 785 775 785 C 763.962 785 755 776.038 755 765 C 755 753.962 763.962 745 775 745 C 786.038 745 795 753.962 795 765 Z " fill="rgb(255,0,0)"/><path d=" M 795 715 C 795 726.038 786.038 735 775 735 C 763.962 735 755 726.038 755 715 C 755 703.962 763.962 695 775 695 C 786.038 695 795 703.962 795 715 Z " fill="rgb(0,0,0)"/><path d=" M 785.798 701.299 C 789.282 700.793 785.513 700.395 780.731 696.441 C 780.401 696.168 779.408 695.858 779.077 695.55 C 778.692 695.191 778.623 694.368 778.25 693.959 C 778.069 693.025 780.399 690.615 780.437 690.507 C 791.742 675.945 776.034 676.688 759.353 703.465 Q 774.765 702.9 785.798 701.299 Z " fill="rgb(0,0,0)" vector-effect="non-scaling-stroke" stroke-width="1" stroke="rgb(0,0,0)" stroke-linejoin="miter" stroke-linecap="square" stroke-miterlimit="3"/><path d="M 608.85 840 L 699.85 840 C 713.372 840 724.35 850.978 724.35 864.5 L 724.35 955.5 C 724.35 969.022 713.372 980 699.85 980 L 608.85 980 C 595.328 980 584.35 969.022 584.35 955.5 L 584.35 864.5 C 584.35 850.978 595.328 840 608.85 840 Z" style="stroke:none;fill:#FFF3EC;stroke-miterlimit:10;"/><path d="M 608.85 840 L 699.85 840 C 713.372 840 724.35 850.978 724.35 864.5 L 724.35 955.5 C 724.35 969.022 713.372 980 699.85 980 L 608.85 980 C 595.328 980 584.35 969.022 584.35 955.5 L 584.35 864.5 C 584.35 850.978 595.328 840 608.85 840 Z" style="fill:none;stroke:#000000;stroke-width:2;stroke-linecap:square;stroke-miterlimit:2;"/><circle vector-effect="non-scaling-stroke" cx="630.0000000000001" cy="885.0000000000002" r="20" fill="rgb(110,230,222)"/><circle vector-effect="non-scaling-stroke" cx="629.9999999999999" cy="935" r="20" fill="rgb(230,138,110)"/><path d=" M 619.202 948.701 C 615.718 949.207 619.487 949.605 624.269 953.559 C 624.599 953.832 625.592 954.142 625.923 954.45 C 626.308 954.809 626.377 955.632 626.75 956.041 C 626.931 956.975 624.601 959.385 624.563 959.493 C 613.258 974.055 628.966 973.312 645.647 946.535 Q 630.235 947.1 619.202 948.701 Z " fill="rgb(230,138,110)" vector-effect="non-scaling-stroke" stroke-width="1" stroke="rgb(230,138,110)" stroke-linejoin="miter" stroke-linecap="square" stroke-miterlimit="3"/><path d=" M 700 935 C 700 946.038 691.038 955 680 955 C 668.962 955 660 946.038 660 935 C 660 923.962 668.962 915 680 915 C 691.038 915 700 923.962 700 935 Z " fill="rgb(110,230,222)"/><mask id="_mask_yddkAbL9loqbtQVSJahHYa1XQY9oyLAv"><rect x="300" y="670" width="140" height="140" fill="white" stroke="none"/></mask><rect x="300" y="670" width="140" height="140" transform="matrix(1,0,0,1,0,0)" fill="rgb(255,255,255)"/><rect x="300" y="670" width="140" height="140" transform="matrix(1,0,0,1,0,0)" fill="rgb(255,255,255)" mask="url(#_mask_yddkAbL9loqbtQVSJahHYa1XQY9oyLAv)" vector-effect="non-scaling-stroke" stroke-width="2" stroke="rgb(0,0,0)" stroke-linejoin="miter" stroke-linecap="square" stroke-miterlimit="2"/><circle vector-effect="non-scaling-stroke" cx="340.0000000000001" cy="766.0518024781277" r="19.999999999999943" fill="rgb(0,0,0)"/><path d=" M 329.202 779.753 C 325.718 780.259 329.487 780.657 334.269 784.611 C 334.599 784.884 335.592 785.194 335.923 785.502 C 336.308 785.86 336.377 786.683 336.75 787.093 C 336.931 788.026 334.601 790.437 334.563 790.545 C 323.258 805.107 338.966 804.364 355.647 777.587 Q 340.235 778.152 329.202 779.753 Z " fill="rgb(0,0,0)" vector-effect="non-scaling-stroke" stroke-width="1" stroke="rgb(0,0,0)" stroke-linejoin="miter" stroke-linecap="square" stroke-miterlimit="3"/><path d=" M 420 713.948 C 420 724.986 411.038 733.948 400 733.948 C 388.962 733.948 380 724.986 380 713.948 C 380 702.91 388.962 693.948 400 693.948 C 411.038 693.948 420 702.91 420 713.948 Z " fill="rgb(0,0,0)"/><path d=" M 410.798 700.247 C 414.282 699.741 410.513 699.343 405.731 695.389 C 405.401 695.116 404.408 694.806 404.077 694.498 C 403.692 694.14 403.623 693.317 403.25 692.907 C 403.069 691.974 405.399 689.563 405.437 689.455 C 416.742 674.893 401.034 675.636 384.353 702.413 Q 399.765 701.848 410.798 700.247 Z " fill="rgb(0,0,0)" vector-effect="non-scaling-stroke" stroke-width="1" stroke="rgb(0,0,0)" stroke-linejoin="miter" stroke-linecap="square" stroke-miterlimit="3"/><mask id="_mask_p8alvsBvBccUxNwBjwxfhRGFoRAu4ne5"><rect x="490" y="670" width="140" height="140" fill="white" stroke="none"/></mask><rect x="490" y="670" width="140" height="140" transform="matrix(1,0,0,1,0,0)" fill="rgb(255,255,255)"/><rect x="490" y="670" width="140" height="140" transform="matrix(1,0,0,1,0,0)" fill="rgb(255,255,255)" mask="url(#_mask_p8alvsBvBccUxNwBjwxfhRGFoRAu4ne5)" vector-effect="non-scaling-stroke" stroke-width="2" stroke="rgb(0,0,0)" stroke-linejoin="miter" stroke-linecap="square" stroke-miterlimit="2"/><circle vector-effect="non-scaling-stroke" cx="560.0000000000001" cy="740.0000000000001" r="20" fill="rgb(255,0,0)"/><circle vector-effect="non-scaling-stroke" cx="520.0000000000002" cy="765" r="19.99999999999997" fill="rgb(0,0,0)"/><path d=" M 509.202 778.701 C 505.718 779.207 509.487 779.605 514.269 783.559 C 514.599 783.832 515.592 784.142 515.923 784.45 C 516.308 784.809 516.377 785.632 516.75 786.041 C 516.931 786.975 514.601 789.385 514.563 789.493 C 503.258 804.055 518.966 803.312 535.647 776.535 Q 520.235 777.1 509.202 778.701 Z " fill="rgb(0,0,0)" vector-effect="non-scaling-stroke" stroke-width="1" stroke="rgb(0,0,0)" stroke-linejoin="miter" stroke-linecap="square" stroke-miterlimit="3"/><path d=" M 620 715 C 620 726.038 611.038 735 600 735 C 588.962 735 580 726.038 580 715 C 580 703.962 588.962 695 600 695 C 611.038 695 620 703.962 620 715 Z " fill="rgb(0,0,0)"/><path d=" M 610.798 701.299 C 614.282 700.793 610.513 700.395 605.731 696.441 C 605.401 696.168 604.408 695.858 604.077 695.55 C 603.692 695.191 603.623 694.368 603.25 693.959 C 603.069 693.025 605.399 690.615 605.437 690.507 C 616.742 675.945 601.034 676.688 584.353 703.465 Q 599.765 702.9 610.798 701.299 Z " fill="rgb(0,0,0)" vector-effect="non-scaling-stroke" stroke-width="1" stroke="rgb(0,0,0)" stroke-linejoin="miter" stroke-linecap="square" stroke-miterlimit="3"/><mask id="_mask_wlcHsP0jF0hPNhLugVvSY0JCwtz9XobT"><rect x="870" y="670" width="140" height="140" fill="white" stroke="none"/></mask><rect x="870" y="670" width="140" height="140" transform="matrix(1,0,0,1,0,0)" fill="rgb(255,255,255)"/><rect x="870" y="670" width="140" height="140" transform="matrix(1,0,0,1,0,0)" fill="rgb(255,255,255)" mask="url(#_mask_wlcHsP0jF0hPNhLugVvSY0JCwtz9XobT)" vector-effect="non-scaling-stroke" stroke-width="2" stroke="rgb(0,0,0)" stroke-linejoin="miter" stroke-linecap="square" stroke-miterlimit="2"/><circle vector-effect="non-scaling-stroke" cx="940.0000000000003" cy="740.0000000000003" r="20" fill="rgb(255,0,0)"/><circle vector-effect="non-scaling-stroke" cx="900.0000000000003" cy="765.0000000000001" r="20" fill="rgb(0,0,0)"/><path d=" M 889.202 778.701 C 885.718 779.207 889.487 779.605 894.269 783.559 C 894.599 783.832 895.592 784.142 895.923 784.45 C 896.308 784.809 896.377 785.632 896.75 786.041 C 896.931 786.975 894.601 789.385 894.563 789.493 C 883.258 804.055 898.966 803.312 915.647 776.535 Q 900.235 777.1 889.202 778.701 Z " fill="rgb(0,0,0)" vector-effect="non-scaling-stroke" stroke-width="1" stroke="rgb(0,0,0)" stroke-linejoin="miter" stroke-linecap="square" stroke-miterlimit="3"/><circle vector-effect="non-scaling-stroke" cx="980" cy="765.0000000000001" r="20" fill="rgb(0,0,0)"/><path d=" M 1000 715 C 1000 726.038 991.038 735 980 735 C 968.962 735 960 726.038 960 715 C 960 703.962 968.962 695 980 695 C 991.038 695 1000 703.962 1000 715 Z " fill="rgb(0,0,0)"/><path d=" M 990.798 701.299 C 994.282 700.793 990.513 700.395 985.731 696.441 C 985.401 696.168 984.408 695.858 984.077 695.55 C 983.692 695.191 983.623 694.368 983.25 693.959 C 983.069 693.025 985.399 690.615 985.437 690.507 C 996.742 675.945 981.034 676.688 964.353 703.465 Q 979.765 702.9 990.798 701.299 Z " fill="rgb(0,0,0)" vector-effect="non-scaling-stroke" stroke-width="1" stroke="rgb(0,0,0)" stroke-linejoin="miter" stroke-linecap="square" stroke-miterlimit="3"/><path d=" M 880 715 C 880 726.038 888.962 735 900 735 C 911.038 735 920 726.038 920 715 C 920 703.962 911.038 695 900 695 C 888.962 695 880 703.962 880 715 Z " fill="rgb(0,0,0)"/><path d=" M 889.202 701.299 C 885.718 700.793 889.487 700.395 894.269 696.441 C 894.599 696.168 895.592 695.858 895.923 695.55 C 896.308 695.191 896.377 694.368 896.75 693.959 C 896.931 693.025 894.601 690.615 894.563 690.507 C 883.258 675.945 898.966 676.688 915.647 703.465 Q 900.235 702.9 889.202 701.299 Z " fill="rgb(0,0,0)" vector-effect="non-scaling-stroke" stroke-width="1" stroke="rgb(0,0,0)" stroke-linejoin="miter" stroke-linecap="square" stroke-miterlimit="3"/><mask id="_mask_mC2F69f0yklkElakHbqGf37rM3SfAaXX"><rect x="80" y="632.413" width="140" height="140" fill="white" stroke="none"/></mask><rect x="80" y="632.413" width="140" height="140" transform="matrix(1,0,0,1,0,0)" fill="rgb(255,255,255)"/><rect x="80" y="632.413" width="140" height="140" transform="matrix(1,0,0,1,0,0)" fill="rgb(255,255,255)" mask="url(#_mask_mC2F69f0yklkElakHbqGf37rM3SfAaXX)" vector-effect="non-scaling-stroke" stroke-width="2" stroke="rgb(0,0,0)" stroke-linejoin="miter" stroke-linecap="square" stroke-miterlimit="2"/><circle vector-effect="non-scaling-stroke" cx="150.00000000000017" cy="702.4129268953202" r="19.99999999999997" fill="rgb(255,0,0)"/><path d=" M 700 885 C 700 896.038 691.038 905 680 905 C 668.962 905 660 896.038 660 885 C 660 873.962 668.962 865 680 865 C 691.038 865 700 873.962 700 885 Z " fill="rgb(230,138,110)"/><path d=" M 690.798 871.299 C 694.282 870.793 690.513 870.395 685.731 866.441 C 685.401 866.168 684.408 865.858 684.077 865.55 C 683.692 865.191 683.623 864.368 683.25 863.959 C 683.069 863.025 685.399 860.615 685.437 860.507 C 696.742 845.945 681.034 846.688 664.353 873.465 Q 679.765 872.9 690.798 871.299 Z " fill="rgb(230,138,110)" vector-effect="non-scaling-stroke" stroke-width="1" stroke="rgb(230,138,110)" stroke-linejoin="miter" stroke-linecap="square" stroke-miterlimit="3"/><path d="M 24.5 0 L 115.5 0 C 129.022 0 140 10.978 140 24.5 L 140 115.5 C 140 129.022 129.022 140 115.5 140 L 24.5 140 C 10.978 140 0 129.022 0 115.5 L 0 24.5 C 0 10.978 10.978 0 24.5 0 Z" style="stroke:none;fill:#FFF3EC;stroke-miterlimit:10;"/><path d="M 24.5 0 L 115.5 0 C 129.022 0 140 10.978 140 24.5 L 140 115.5 C 140 129.022 129.022 140 115.5 140 L 24.5 140 C 10.978 140 0 129.022 0 115.5 L 0 24.5 C 0 10.978 10.978 0 24.5 0 Z" style="fill:none;stroke:#000000;stroke-width:2;stroke-linecap:square;stroke-miterlimit:2;"/><circle vector-effect="non-scaling-stroke" cx="45.64682825600369" cy="45.00000000000023" r="19.999999999999975" fill="rgb(230,138,110)"/><circle vector-effect="non-scaling-stroke" cx="45.64682825600346" cy="94.99999999999989" r="19.999999999999947" fill="rgb(230,138,110)"/><path d=" M 34.848 108.701 C 31.365 109.207 35.134 109.605 39.916 113.559 C 40.246 113.832 41.239 114.142 41.57 114.45 C 41.955 114.809 42.023 115.632 42.397 116.041 C 42.578 116.975 40.247 119.385 40.21 119.493 C 28.904 134.055 44.612 133.312 61.294 106.535 Q 45.882 107.1 34.848 108.701 Z " fill="rgb(230,138,110)" vector-effect="non-scaling-stroke" stroke-width="1" stroke="rgb(230,138,110)" stroke-linejoin="miter" stroke-linecap="square" stroke-miterlimit="3"/><path d=" M 115.647 95 C 115.647 106.038 106.685 115 95.647 115 C 84.609 115 75.647 106.038 75.647 95 C 75.647 83.962 84.609 75 95.647 75 C 106.685 75 115.647 83.962 115.647 95 Z " fill="rgb(230,138,110)"/><path d=" M 115.647 45 C 115.647 56.038 106.685 65 95.647 65 C 84.609 65 75.647 56.038 75.647 45 C 75.647 33.962 84.609 25 95.647 25 C 106.685 25 115.647 33.962 115.647 45 Z " fill="rgb(230,138,110)"/><path d=" M 106.445 31.299 C 109.929 30.793 106.16 30.395 101.378 26.441 C 101.048 26.168 100.055 25.858 99.724 25.55 C 99.338 25.191 99.27 24.368 98.897 23.959 C 98.716 23.025 101.046 20.615 101.084 20.507 C 112.389 5.945 96.681 6.688 80 33.465 Q 95.412 32.9 106.445 31.299 Z " fill="rgb(230,138,110)" vector-effect="non-scaling-stroke" stroke-width="1" stroke="rgb(230,138,110)" stroke-linejoin="miter" stroke-linecap="square" stroke-miterlimit="3"/></g></svg>