<svg id="SvgjsSvg1001" width="288" height="288" xmlns="http://www.w3.org/2000/svg" version="1.1" xmlns:xlink="http://www.w3.org/1999/xlink" xmlns:svgjs="http://svgjs.com/svgjs"><defs id="SvgjsDefs1002"></defs><g id="SvgjsG1008"><svg xmlns="http://www.w3.org/2000/svg" width="288" height="288" viewBox="0 -.6 165.086 213.22"><defs><filter id="a" width="1.522" height="1.705" x="-.261" y="-.353" color-interpolation-filters="sRGB"><feGaussianBlur stdDeviation="1.365"></feGaussianBlur></filter></defs><g transform="translate(-52.804 -81.27)" fill="#e68a6e" class="color000 svgShape"><ellipse cx="106.545" cy="124.289" rx="6.322" ry="7.259" fill="#e68a6e" class="color000 svgShape"></ellipse><ellipse cx="100.457" cy="111.176" rx="6.322" ry="7.259" fill="#e68a6e" class="color000 svgShape"></ellipse><g transform="translate(-10.233 -6.929)" fill="#e68a6e" class="color000 svgShape"><path stroke="#e68a6e" stroke-width=".373" d="m 142.2784,143.2697 2.61707,-19.29813 3.27134,27.56876 1.96281,-19.98734 3.92562,18.60891 -2.61708,-34.46095 -10.46829,4.13532 z" fill="#e68a6e" class="color000 svgShape colorStroke000 svgStroke"></path><path stroke="#e68a6e" stroke-width=".242" d="m 143.65182,113.54583 c 3.37826,-8.64752 9.18459,-17.50679 17.63726,-19.442003 8.45268,-1.935201 18.31832,1.32176 24.78716,6.626483 6.46885,5.30473 13.47169,18.58937 13.47169,18.58937 0,0 -11.65797,-7.23759 -17.93198,-9.35989 -6.27402,-2.12231 -15.05939,-6.72106 -23.01782,-3.28488 -7.95845,3.43616 -19.19201,28.34377 -19.19201,28.34377 0,0 0.86745,-12.82532 4.2457,-21.47285 z" fill="#e68a6e" class="color000 svgShape colorStroke000 svgStroke"></path><path stroke="#e68a6e" stroke-width=".242" d="m 139.40612,135.01868 c 4.95484,-10.94281 9.28918,-23.26348 18.52263,-30.5171 10.2195,-4.3772 18.4062,-3.39695 24.69636,2.79893 l 16.92282,12.01917 c -12.38317,-2.8019 -23.49194,-9.71927 -37.61137,-6.91416 -10.16815,1.97312 -15.08602,12.78701 -22.53044,22.61316" fill="#e68a6e" class="color000 svgShape colorStroke000 svgStroke"></path><path stroke="#e68a6e" stroke-width=".217" d="m 185.14463,123.05436 c -2.22408,-10.53343 -6.04671,-21.3248 -11.61157,-23.682044 -5.56487,-2.357244 -12.05996,1.610004 -16.31877,8.071624 -4.2588,6.46162 -8.86915,22.64347 -8.86915,22.64347 0,0 7.67509,-8.81602 11.80562,-11.40117 4.13053,-2.58515 9.91442,-8.18682 15.15391,-4.00126 5.23948,4.18555 12.63515,34.52517 12.63515,34.52517 0,0 -0.57109,-15.62235 -2.79519,-26.15579 z" fill="#e68a6e" class="color000 svgShape colorStroke000 svgStroke"></path><path stroke="#e68a6e" stroke-width=".217" d="m 187.93982,149.21015 c -3.26205,-13.32929 -6.11559,-28.33693 -12.19447,-37.17247 -6.72807,-5.33181 -12.11783,-4.13778 -16.25898,3.40933 l -11.14123,14.6404 c 8.15252,-3.41295 15.46605,-11.83893 24.76165,-8.42205 6.69425,2.40343 9.93196,15.57568 14.83303,27.54479" fill="#e68a6e" class="color000 svgShape colorStroke000 svgStroke"></path><path stroke="#e68a6e" stroke-width=".304" d="m 72.76596,294.33352 c 1.326069,-8.99045 10.467596,-19.27058 13.055734,-27.94295 17.894276,-49.64518 30.731576,-101.6974 62.523456,-143.97291 l 6.12057,0.40136 c -33.99877,55.60015 -42.65781,114.82622 -47.36587,172.02381 z" fill="#e68a6e" class="color000 svgShape colorStroke000 svgStroke"></path><path stroke="#e68a6e" stroke-width=".264" d="m 129.88022,114.08163 c -8.84658,-1.68928 -19.89242,-1.0755 -28.3785,6.24015 -8.486094,7.31565 -14.569623,19.08559 -16.363052,28.65977 -1.793428,9.57417 1.490023,24.35725 1.490023,24.35725 0,0 4.840981,-15.89368 8.674411,-23.40865 3.83343,-7.51496 8.074198,-18.99115 17.182328,-24.9334 9.10813,-5.94226 35.85972,-2.57909 35.85972,-2.57909 0,0 -9.61836,-6.64674 -18.46493,-8.33603 z" fill="#e68a6e" class="color000 svgShape colorStroke000 svgStroke"></path><path stroke="#e68a6e" stroke-width=".415" d="m 147.53459,152.33815 -3.34771,-18.68467 -4.18464,26.69238 -2.51076,-19.35197 -5.02155,18.01735 3.3477,-33.36546 13.3908,4.00385 z" fill="#e68a6e" class="color000 svgShape colorStroke000 svgStroke"></path><path stroke="#e68a6e" stroke-width=".264" d="M148.34515 122.41766c-11.76946-1.45805-23.96892-4.34355-36.79949.63671-11.671427 7.65113-17.912915 16.40896-18.937922 26.3266l-5.979047 23.95783c8.526976-14.01991 13.125531-29.17701 27.004629-41.64757 9.96253-9.00824 21.6114-7.58879 34.71183-9.27357M166.81009 114.08163c8.84657-1.68928 19.89241-1.0755 28.3785 6.24015 8.48608 7.31565 14.56962 19.08559 16.36304 28.65977 1.79343 9.57417-1.49002 24.35725-1.49002 24.35725 0 0-4.84099-15.89368-8.67441-23.40865-3.83344-7.51496-8.0742-18.99115-17.18233-24.9334-9.10812-5.94226-35.85972-2.57909-35.85972-2.57909 0 0 9.61836-6.64674 18.46494-8.33603z" fill="#e68a6e" class="color000 svgShape colorStroke000 svgStroke"></path><path stroke="#e68a6e" stroke-width=".264" d="m 148.34515,122.41766 c 11.76946,-1.45805 23.96892,-4.34355 36.7995,0.63671 11.67141,7.65113 17.9129,16.40896 18.93791,26.3266 l 5.97905,23.95783 c -8.52698,-14.01991 -13.12553,-29.17701 -27.00462,-41.64757 -9.96254,-9.00824 -21.61142,-7.58879 -34.71184,-9.27357" fill="#e68a6e" class="color000 svgShape colorStroke000 svgStroke"></path><path stroke="#e68a6e" stroke-width=".216" d="m 104.77675,162.13156 c -4.26329,-5.33793 -6.988596,-12.55204 -2.55293,-19.47465 4.43567,-6.92262 13.84097,-13.20135 22.43737,-16.28343 8.59641,-3.08208 23.68396,-3.95582 23.68396,-3.95582 0,0 -13.71188,6.3128 -19.73227,10.28905 -6.02041,3.97627 -15.69782,9.0129 -18.63679,16.05781 -2.93897,7.04493 8.28807,23.53852 8.28807,23.53852 0,0 -9.22413,-4.83355 -13.48741,-10.17148 z" fill="#e68a6e" class="color000 svgShape colorStroke000 svgStroke"></path><path stroke="#e68a6e" stroke-width=".216" d="m 118.26416,172.30304 c -4.91877,-7.26078 -11.32827,-14.50967 -10.42282,-23.75003 3.80095,-9.03493 10.28528,-14.80758 19.43968,-17.46569 l 21.06413,-8.66966 c -10.81942,8.30094 -23.90124,14.30958 -31.63831,25.73358 -5.60789,8.21169 -0.76207,15.40284 1.55732,24.1518" fill="#e68a6e" class="color000 svgShape colorStroke000 svgStroke"></path><path stroke="#e68a6e" stroke-width=".264" d="m 163.61737,109.10593 c 7.98224,-4.17127 18.73497,-6.77242 28.9717,-2.21809 10.23672,4.55431 19.45908,14.06688 23.94011,22.71568 4.48102,8.64879 5.60509,23.75035 5.60509,23.75035 0,0 -9.2232,-13.81944 -15.0629,-19.90777 -5.83969,-6.08833 -13.21295,-15.85164 -23.64876,-18.91147 -10.43578,-3.05983 -35.07746,7.88303 -35.07746,7.88303 0,0 7.28999,-9.14046 15.27222,-13.31173 z" fill="#e68a6e" class="color000 svgShape colorStroke000 svgStroke"></path><path stroke="#e68a6e" stroke-width=".264" d="m 148.34515,122.41766 c 10.84743,-4.79368 21.69445,-11.07819 35.41649,-10.014 13.38328,3.95594 21.88731,10.53904 25.73178,19.7385 l 12.64085,21.21171 c -12.21132,-10.96134 -20.98977,-24.14554 -37.87804,-32.0784 -12.13894,-5.74864 -22.88206,-1.0267 -35.91108,1.14219" fill="#e68a6e" class="color000 svgShape colorStroke000 svgStroke"></path><path stroke="#e68a6e" stroke-width=".268" d="M 136.91176,104.92367 C 130.2352,98.713504 120.4823,93.348724 109.4292,95.232245 98.376089,97.115778 87.057724,104.19158 80.545528,111.63359 c -6.512195,7.442 -11.398219,22.16764 -11.398219,22.16764 0,0 12.402366,-11.35808 19.585595,-15.90305 7.183229,-4.54497 16.774996,-12.34788 27.644896,-12.69394 10.86991,-0.34605 31.96735,16.90193 31.96735,16.90193 0,0 -4.75681,-10.97235 -11.43339,-17.1825 z" fill="#e68a6e" class="color000 svgShape colorStroke000 svgStroke"></path><path stroke="#e68a6e" stroke-width=".268" d="m 148.34515,122.10617 c -9.29313,-7.56936 -18.21092,-16.62102 -31.75952,-19.10844 -13.94803,0.47552 -23.834384,4.82403 -29.868984,12.97808 l -17.569337,17.82542 c 14.575612,-7.74407 26.387768,-18.58542 44.728331,-22.1097 13.19455,-2.57956 22.40477,4.89151 34.46951,10.41464" fill="#e68a6e" class="color000 svgShape colorStroke000 svgStroke"></path><ellipse cx="154.406" cy="129.792" rx="5.204" ry="6.3" fill="#e68a6e" class="color000 svgShape"></ellipse><path stroke="#e68a6e" stroke-width=".17" d="m 168.68945,154.18424 c 5.08329,-4.18717 9.60742,-9.88339 8.50155,-15.43613 -1.10587,-5.55275 -6.26696,-10.65522 -11.87486,-13.20883 -5.60791,-2.55362 -16.97099,-3.43311 -16.97099,-3.43311 0,0 8.47675,5.18247 11.79475,8.41462 3.31798,3.23213 9.10572,7.35141 9.01431,12.9829 -0.0914,5.63148 -14.29477,18.59327 -14.29477,18.59327 0,0 8.74673,-3.72556 13.83001,-7.91272 z" fill="#e68a6e" class="color000 svgShape colorStroke000 svgStroke"></path><ellipse cx="145.666" cy="130.49" rx="5.204" ry="6.3" fill="#e68a6e" class="color000 svgShape"></ellipse><path stroke="#e68a6e" stroke-width=".17" d="m 154.85944,162.09696 c 6.23436,-5.70629 13.61641,-11.38484 16.0149,-18.73501 0.0927,-7.22263 -2.98144,-11.88723 -9.16258,-14.11098 l -13.36661,-7.1448 c 5.57558,6.72597 13.66755,11.65913 15.81478,20.82766 1.5793,6.591 -4.57537,12.2429 -9.30049,19.16313" fill="#e68a6e" class="color000 svgShape colorStroke000 svgStroke"></path><path stroke="#e68a6e" stroke-width=".113" d="m 126.90396,154.99786 c -1.65812,-2.60084 -2.53672,-6.64941 -0.21648,-11.77345 2.32025,-5.12402 6.83942,-10.71726 10.8432,-14.16218 4.00377,-3.44491 10.81447,-6.64457 10.81447,-6.64457 0,0 -6.45292,6.3714 -9.34364,9.92482 -2.8907,3.55342 -7.4727,8.41494 -9.12729,13.35271 -1.65459,4.93777 2.59571,13.31605 2.59571,13.31605 0,0 -3.90785,-1.41253 -5.56597,-4.01338 z" fill="#e68a6e" class="color000 svgShape colorStroke000 svgStroke"></path><path stroke="#e68a6e" stroke-width=".113" d="m 132.46993,159.01124 c -1.86048,-3.69241 -4.39035,-7.1154 -3.54337,-13.07365 2.13623,-6.33816 5.32076,-11.10049 9.55467,-14.37738 l 9.86392,-9.14255 c -5.25005,7.11085 -11.40581,13.18066 -15.42193,21.70985 -2.90766,6.13904 -1.07658,9.80058 -0.45329,14.88373" fill="#e68a6e" class="color000 svgShape colorStroke000 svgStroke"></path><path stroke="#e68a6e" stroke-width=".265" d="m 107.09985,294.84283 c 3.27628,-34.19846 6.73412,-68.3606 15.86307,-101.38852 L 97.226493,275.90618 93.89029,294.4936 Z" opacity=".553" fill="#e68a6e" class="color000 svgShape colorStroke000 svgStroke"></path><ellipse cx="148.708" cy="121.814" filter="url(#a)" rx="7.738" ry="4.646" fill="#e68a6e" class="color000 svgShape"></ellipse></g></g></svg></g></svg>